<?xml version="1.0" encoding="UTF-8"?>
<svg width="16px" height="16px" viewBox="0 0 16 16" version="1.1" xmlns="http://www.w3.org/2000/svg" xmlns:xlink="http://www.w3.org/1999/xlink">
    <defs>
        <path d="M7,0 L7,2.66666667 L13.6666667,2.66666667 L13.6666667,12 L0.333333333,12 L0.333333333,0 L7,0 Z M5.66666667,9.33333333 L1.66666667,9.33333333 L1.66666667,10.6666667 L5.66666667,10.6666667 L5.66666667,9.33333333 Z M12.3333333,4 L7,4 L7,10.6666667 L12.3333333,10.6666667 L12.3333333,4 Z M11,8 L11,9.33333333 L8.33333333,9.33333333 L8.33333333,8 L11,8 Z M5.66666667,6.66666667 L1.66666667,6.66666667 L1.66666667,8 L5.66666667,8 L5.66666667,6.66666667 Z M11,5.33333333 L11,6.66666667 L8.33333333,6.66666667 L8.33333333,5.33333333 L11,5.33333333 Z M5.66666667,4 L1.66666667,4 L1.66666667,5.33333333 L5.66666667,5.33333333 L5.66666667,4 Z M5.66666667,1.33333333 L1.66666667,1.33333333 L1.66666667,2.66666667 L5.66666667,2.66666667 L5.66666667,1.33333333 Z" id="path-1"></path>
        <rect id="path-3" x="0" y="0" width="16" height="16"></rect>
    </defs>
    <g id="Bizon360-Platform" stroke="none" stroke-width="1" fill="none" fill-rule="evenodd">
        <g id="[UX_UI]_Opportunities_Grid_View" transform="translate(-320.000000, -413.000000)">
            <rect fill="#F6F8FA" x="0" y="0" width="2493" height="1080"></rect>
            <g id="Group-4" transform="translate(300.000000, 361.000000)">
                <rect id="Rectangle" stroke="#DCE0E4" fill="#FFFFFF" x="0.5" y="0.5" width="339" height="185" rx="8"></rect>
                <g id="Stacked-Group" transform="translate(20.000000, 15.000000)">
                    <g id="Group-7" transform="translate(0.000000, 37.000000)">
                        <g id="icon-/-add-user-copy" transform="translate(1.000000, 2.000000)">
                            <mask id="mask-2" fill="white">
                                <use xlink:href="#path-1"></use>
                            </mask>
                            <use id="Combined-Shape" fill="#000000" fill-rule="nonzero" xlink:href="#path-1"></use>
                            <g id="🎨-Color" mask="url(#mask-2)">
                                <g transform="translate(-1.000000, -2.000000)">
                                    <mask id="mask-4" fill="white">
                                        <use xlink:href="#path-3"></use>
                                    </mask>
                                    <use id="White" stroke="none" fill="#808890" fill-rule="evenodd" xlink:href="#path-3"></use>
                                </g>
                            </g>
                        </g>
                    </g>
                </g>
            </g>
        </g>
    </g>
</svg>