<?xml version="1.0" encoding="UTF-8"?>
<svg width="16px" height="16px" viewBox="0 0 16 16" version="1.1" xmlns="http://www.w3.org/2000/svg" xmlns:xlink="http://www.w3.org/1999/xlink">
    <title>9E7FB90B-AD60-43E2-8D33-0FB0F76F2370</title>
    <defs>
        <path d="M8.33333333,2.66666667 L0.333333333,2.66666667 L0.333333333,4 L8.33333333,4 L8.33333333,2.66666667 L8.33333333,2.66666667 Z M8.33333333,0 L0.333333333,0 L0.333333333,1.33333333 L8.33333333,1.33333333 L8.33333333,0 L8.33333333,0 Z M0.333333333,6.66666667 L5.66666667,6.66666667 L5.66666667,5.33333333 L0.333333333,5.33333333 L0.333333333,6.66666667 L0.333333333,6.66666667 Z M13.3333333,3.66666667 L14.3333333,4.66666667 L9.67333333,9.33333333 L6.66666667,6.33333333 L7.66666667,5.33333333 L9.67333333,7.33333333 L13.3333333,3.66666667 L13.3333333,3.66666667 Z" id="path-1"></path>
        <rect id="path-3" x="0" y="0" width="33.3333333" height="33.3333333"></rect>
    </defs>
    <g id="Bizon360-Platform" stroke="none" stroke-width="1" fill="none" fill-rule="evenodd">
        <g id="[UX_UI]_Opportunities_Grid_View" transform="translate(-320.000000, -434.000000)">
            <rect fill="#F6F8FA" x="0" y="0" width="2493" height="1080"></rect>
            <g id="Group-4" transform="translate(300.000000, 361.000000)">
                <rect id="Rectangle" stroke="#DCE0E4" fill="#FFFFFF" x="0.5" y="0.5" width="339" height="185" rx="8"></rect>
                <g id="Stacked-Group" transform="translate(20.000000, 15.000000)">
                    <g id="Group-7" transform="translate(0.000000, 37.000000)">
                        <g id="Group-6" transform="translate(0.000000, 21.000000)">
                            <g id="icon-/-add-user-copy-2" transform="translate(1.000000, 4.000000)">
                                <mask id="mask-2" fill="white">
                                    <use xlink:href="#path-1"></use>
                                </mask>
                                <g id="Mask"></g>
                                <g id="🎨-Color" mask="url(#mask-2)">
                                    <g transform="translate(-9.666667, -12.666667)">
                                        <mask id="mask-4" fill="white">
                                            <use xlink:href="#path-3"></use>
                                        </mask>
                                        <use id="White" stroke="none" fill="#808890" fill-rule="evenodd" xlink:href="#path-3"></use>
                                    </g>
                                </g>
                            </g>
                        </g>
                    </g>
                </g>
            </g>
        </g>
    </g>
</svg>