<?xml version="1.0" encoding="UTF-8"?>
<svg width="24px" height="24px" viewBox="0 0 24 24" version="1.1" xmlns="http://www.w3.org/2000/svg" xmlns:xlink="http://www.w3.org/1999/xlink">
    <title>8E336D1E-6230-41F5-B921-702246AA116A</title>
    <defs>
        <path d="M19.41,9.58 L10.41,0.58 C10.05,0.22 9.55,0 9,0 L2,0 C0.9,0 0,0.9 0,2 L0,9 C0,9.55 0.22,10.05 0.59,10.42 L9.59,19.42 C9.95,19.78 10.45,20 11,20 C11.55,20 12.05,19.78 12.41,19.41 L19.41,12.41 C19.78,12.05 20,11.55 20,11 C20,10.45 19.77,9.94 19.41,9.58 Z M9,1.99 L18,10.99 L11,18.01 L2,9 L2,2 L9,2 L9,1.99 Z M4.5,3 C3.67157288,3 3,3.67157288 3,4.5 C3,5.32842712 3.67157288,6 4.5,6 C5.32842712,6 6,5.32842712 6,4.5 C6,3.67157288 5.32842712,3 4.5,3 Z" id="path-1"></path>
        <rect id="path-3" x="0" y="0" width="24" height="24"></rect>
    </defs>
    <g id="Bizon360-Platform" stroke="none" stroke-width="1" fill="none" fill-rule="evenodd">
        <g id="[UIX]-Organization-Management" transform="translate(-1676.000000, -511.000000)">
            <rect fill="#F6F8FA" x="0" y="0" width="1760" height="3156"></rect>
            <g id="Group-51" transform="translate(280.000000, 237.000000)">
                <g id="Group-22" transform="translate(980.000000, 177.000000)">
                    <rect id="Rectangle" stroke="#DCE0E4" fill="#FFFFFF" x="0.5" y="0.5" width="459" height="135" rx="8"></rect>
                    <g id="Group-20" transform="translate(20.000000, 15.000000)">
                        <g id="icon-/-bluetooth_searching" transform="translate(398.000000, 84.000000)">
                            <mask id="mask-2" fill="white">
                                <use xlink:href="#path-1"></use>
                            </mask>
                            <use id="Shape" fill="#000000" fill-rule="nonzero" xlink:href="#path-1"></use>
                            <g id="🎨-Color" mask="url(#mask-2)">
                                <g transform="translate(-2.000000, -2.000000)">
                                    <mask id="mask-4" fill="white">
                                        <use xlink:href="#path-3"></use>
                                    </mask>
                                    <use id="Black" stroke="none" fill="#000000" fill-rule="evenodd" xlink:href="#path-3"></use>
                                </g>
                            </g>
                        </g>
                    </g>
                </g>
            </g>
        </g>
    </g>
</svg>