<svg xmlns="http://www.w3.org/2000/svg" width="64.001" height="769.001" viewBox="0 0 64.001 769.001">
  <g id="Group_5997" data-name="Group 5997" transform="translate(-847.435 -561.951)" opacity="0.03">
    <path id="Union_9" data-name="Union 9" d="M10.922,768a3.171,3.171,0,0,1-3.167-3.183V617.4a3.167,3.167,0,1,1,6.333,0v21.784l0,0v7.5l-1.541,1.55a2.639,2.639,0,0,1-3.736,0,2.667,2.667,0,0,1,0-3.746l.083-.084-.086.086a2.669,2.669,0,0,0,0,3.746,2.64,2.64,0,0,0,3.737,0l1.541-1.549V665.47l0,0v0l40.264-40.482V563.865a2.637,2.637,0,0,0,.855.148,2.618,2.618,0,0,0,2.273-1.3,2.617,2.617,0,0,1-2.271,1.3,2.637,2.637,0,0,1-.855-.148v0a2.766,2.766,0,0,1-1.013-.626l-15.515-15.6H20.592a2.653,2.653,0,0,1,0-5.306H32.55l-2.459-2.472H12.94a2.653,2.653,0,0,1,0-5.305H24.814l-2.459-2.472H5.552a2.653,2.653,0,0,1,0-5.306H17.078L8,517.648a2.684,2.684,0,0,1-.77-1.867l-.243-83.736a2.638,2.638,0,1,1,5.277-.011l.032,12.172L9.2,447.315a3.186,3.186,0,0,0-.927,2.255,3.186,3.186,0,0,1,.927-2.255l3.092-3.109.031,8.415-.031-8.415,14.132-14.2-6.058-6.09a6.665,6.665,0,0,0,4.5-4.286,6.664,6.664,0,0,1-4.5,4.285l-1.645-1.655A3.205,3.205,0,0,1,17.8,420a3.205,3.205,0,0,0,.927,2.259l1.645,1.655a6.7,6.7,0,1,1,4.549-4.435l5.986,6.016,2.237,2.25A3.187,3.187,0,0,1,34.068,430a3.187,3.187,0,0,0-.926-2.255l-2.237-2.25,3.145-3.162v-8.585L22.334,401.972H10.83a4.133,4.133,0,0,1-4.117-4.139V385.874a4.126,4.126,0,0,1,4.117-4.138H22.714a4.128,4.128,0,0,1,4.126,4.138V397.5l7.209,7.237,5.393,5.423a3.18,3.18,0,0,1,.926,2.25,3.18,3.18,0,0,0-.926-2.25l-5.393-5.423v-6.664a3.166,3.166,0,1,1,6.332,0v25.574a3.231,3.231,0,0,1-.929,2.26l-6.312,6.346L13.679,451.825a3.052,3.052,0,0,1-1.351.8l.052,19.452-3.2,3.268a3.184,3.184,0,0,0,.042,4.5,3.185,3.185,0,0,1-.042-4.5l3.2-3.268h0l40.509-41.428V405.728a2.84,2.84,0,0,1-.611-.477L5.911,358.592a3.206,3.206,0,0,1-.929-2.249V271.916a3.166,3.166,0,1,1,6.332,0v12.745l-4.422,4.785a3.2,3.2,0,0,0-.12,4.2,3.2,3.2,0,0,1,.121-4.2l4.421-4.785v26.475l-4.433,4.458a3.2,3.2,0,0,0,0,4.5,3.134,3.134,0,0,0,2.2.933,3.132,3.132,0,0,1-2.2-.933,3.2,3.2,0,0,1,0-4.5l4.432-4.457h0L51.38,270.855V234.914l4.158,4.181a3.2,3.2,0,0,1,0,4.5,3.145,3.145,0,0,1-2.237.934,3.147,3.147,0,0,0,2.238-.934,3.2,3.2,0,0,0,0-4.5l-4.159-4.181V216.375L32.456,197.339a3.145,3.145,0,0,1-.929-2.25v-6.951A13.354,13.354,0,0,1,20.75,175.329V158.882a2.623,2.623,0,0,1,2.692-2.536h22.5a2.616,2.616,0,0,1,2.691,2.536v16.448a13.344,13.344,0,0,1-10.777,12.8v5.646l13.521,13.6,5.013,5.04a3.185,3.185,0,0,1-1.971,5.422,3.185,3.185,0,0,0,1.972-5.422l-5.014-5.041V195.089a3.166,3.166,0,1,1,6.332,0v77.082a3.189,3.189,0,0,1-.929,2.25l-6.755,6.791H43.443a3.177,3.177,0,0,0-3.166,3.183,3.177,3.177,0,0,1,3.166-3.183h6.586L43.7,287.579l6.333-6.367h9.8a3.183,3.183,0,0,1,0,6.367H43.7l-1.636,1.645h0l-6.333,6.367L34.1,297.225h0l-6.332,6.367-16.412,16.5-.042.042v34.891l41.575,41.83v0l3.875,3.9A3.179,3.179,0,0,1,57.69,403a3.179,3.179,0,0,0-.926-2.249l-3.875-3.9V378.733a2.931,2.931,0,0,1-1.214-.775L23.485,348.882a3.173,3.173,0,1,1,4.528-4.446l5.847,6.027V334.3l.723-.727-6,6.033a.648.648,0,0,1-.452.192h-5.86a1.284,1.284,0,0,1-.707-.212l-1.974-1.273a1.787,1.787,0,0,1,0-2.982l1.942-1.252-1.942-1.252a1.788,1.788,0,0,1,0-2.983l1.942-1.252-1.942-1.252a1.787,1.787,0,0,1,0-2.982l1.974-1.273a1.209,1.209,0,0,1,.707-.212h5.6a.658.658,0,0,1,.475.191l5.51,5.54v-1.072L28.6,322.247a.716.716,0,0,1-.19-.466v-5.635a1.352,1.352,0,0,1,.212-.722L29.9,313.45a1.731,1.731,0,0,1,1.478-.817,1.775,1.775,0,0,1,1.488.817l1.235,1.942,1.246-1.942a1.753,1.753,0,0,1,2.965,0l1.246,1.942L40.8,313.45a1.755,1.755,0,0,1,2.966,0l1.277,1.974a1.333,1.333,0,0,1,.2.722v5.846a.633.633,0,0,1-.19.5l-4.865,4.892v1l-1.889,1.9a1.306,1.306,0,0,0-.388.934,1.306,1.306,0,0,1,.388-.934l1.889-1.9,5.288-5.316a.645.645,0,0,1,.486-.191h5.826a1.292,1.292,0,0,1,.708.212l1.962,1.273a1.774,1.774,0,0,1,0,2.982l-1.931,1.252,1.931,1.252a1.775,1.775,0,0,1,0,2.983l-1.931,1.252,1.931,1.252a1.774,1.774,0,0,1,0,2.982L52.5,339.586a1.285,1.285,0,0,1-.708.212H46.176a.656.656,0,0,1-.464-.191l-5.52-5.561-1.889-1.9,1.889,1.9V356.99l12.7,13.094V356.247a3.166,3.166,0,1,1,6.332,0v75.7a3.181,3.181,0,0,1-.907,2.228L46.9,445.84H40.435a3.183,3.183,0,0,0,0,6.367,3.183,3.183,0,0,1,0-6.367H46.9l-6.227,6.367L13.7,479.8a3.055,3.055,0,0,1-1.287.8l.095,34.074L54.355,556.74V537.231a2.641,2.641,0,0,0,3.441-.255,2.672,2.672,0,0,0,.424-.564,2.67,2.67,0,0,1-.422.56,2.638,2.638,0,0,1-3.441.255,2.234,2.234,0,0,1-.3-.255L27.1,509.871a2.647,2.647,0,0,1-.77-1.878V486.546a2.647,2.647,0,0,1,.77-1.878l8.381-8.426a9.744,9.744,0,1,1,8.507,5.008c-.264,0-.528-.011-.781-.031l4.18,4.2a2.887,2.887,0,0,1,0,4.086,2.856,2.856,0,0,1-4.063,0l-6.787-6.813-4.927,4.945V506.9l5.075,5.1-1.339,1.347L36.688,512l3.726,3.746L36.688,512l9.785-9.837v-6.335a2.6,2.6,0,0,1,2.585-2.6H56.52a2.589,2.589,0,0,1,2.577,2.6v7.5a2.581,2.581,0,0,1-2.577,2.589H50.188l.031-.032-.031.032-9.774,9.827,13.941,14.016V515.774a2.638,2.638,0,1,1,5.277,0V626.081a2.65,2.65,0,0,1-.77,1.878L42.09,644.821H55.642a2.653,2.653,0,0,1,0,5.305H36.813L14.089,672.974v0l-1.465,1.473a2.639,2.639,0,0,1-3.736,0,2.648,2.648,0,0,1-.025-3.721,2.649,2.649,0,0,0,.022,3.723,2.64,2.64,0,0,0,3.737,0l1.467-1.474v18.7l-5.035,5.062a2.646,2.646,0,0,0-.768,1.873,2.648,2.648,0,0,1,.768-1.873l5.035-5.062,23.758-23.887a6.03,6.03,0,0,1-.264-1.751,5.747,5.747,0,1,1,5.742,5.773,5.956,5.956,0,0,1-1.752-.265L14.089,699.174v20.288l0,0h0L57,675.85a2.637,2.637,0,0,1,3.737-.022,2.671,2.671,0,0,1,.021,3.757L43.579,697.051H56.412a2.653,2.653,0,0,1,0,5.306H38.354l5.224-5.305-5.224,5.305-4.01,4.074H29.066a2.647,2.647,0,0,0-2.639,2.653,2.647,2.647,0,0,1,2.639-2.653h5.278l-5.225,5.306L25.33,715.59h0L20.115,720.9l-6.026,6.123h0l-1.235,1.252,1.235-1.251v34.615H53.826v-35.1L33.794,746.681a3.177,3.177,0,0,1-4.486-4.5L54.755,716.6a3.135,3.135,0,0,1,3.451-.69,3.182,3.182,0,0,1,1.953,2.939v45.97A3.171,3.171,0,0,1,56.993,768ZM9.043,724.588a2.671,2.671,0,0,0,.022,3.757,2.639,2.639,0,0,0,3.736-.022h0a2.64,2.64,0,0,1-3.735.02,2.671,2.671,0,0,1-.021-3.757l.237-.24Zm8.37-6.346q0-.051,0-.1Q17.413,718.191,17.413,718.242ZM35.663,699.7q0-.069,0-.136Q35.663,699.635,35.663,699.7Zm-26.778-29-.01.01.012-.012.04-.041Zm33.807-4.032a2.669,2.669,0,0,1,0,3.746,2.667,2.667,0,0,0,0-3.746,2.625,2.625,0,0,0-1.868-.78A2.625,2.625,0,0,1,42.692,666.671Zm-4.845,1.114Zm4.243-22.964-5.277,5.305,5.278-5.305H36.728a2.647,2.647,0,0,0-2.639,2.653,2.647,2.647,0,0,1,2.639-2.653ZM37.87,542.331a2.647,2.647,0,0,1,2.639,2.653,2.647,2.647,0,0,0-2.639-2.653h0Zm-7.141-2.54a2.652,2.652,0,0,0,2.043-2.584h0A2.652,2.652,0,0,1,30.729,539.791Zm-.6-5.238a2.652,2.652,0,0,1,.336.021,2.652,2.652,0,0,0-.336-.021h0ZM22.4,526.775a2.647,2.647,0,0,1,2.639,2.653,2.647,2.647,0,0,0-2.639-2.653h0Zm33.509-27.2a3.133,3.133,0,0,1-.664,1.934,3.14,3.14,0,0,0-.42-4.309A3.131,3.131,0,0,1,55.906,499.578Zm-6.236,0a3.133,3.133,0,0,0,.664,1.934,3.145,3.145,0,0,1,.9-4.651A3.129,3.129,0,0,0,49.67,499.577ZM11.442,480.752a3.146,3.146,0,0,1-2.158-.857A3.145,3.145,0,0,0,11.442,480.752ZM12.413,480.593Zm23.526-2.6a2.916,2.916,0,0,0-.838,2.052,2.916,2.916,0,0,1,.838-2.052Zm4.675.6,1-1.008a2.67,2.67,0,0,0,.768-1.879,2.667,2.667,0,0,1-.768,1.878Zm-.6-.6.6.6-.6-.6a2.879,2.879,0,0,0-2.036-.842A2.876,2.876,0,0,1,40.012,477.994Zm-3.6-.383h0a10.352,10.352,0,0,1-.929-1.368A10.151,10.151,0,0,0,36.414,477.611ZM11.47,452.748a3.064,3.064,0,0,0,.858-.128A3.1,3.1,0,0,1,11.47,452.748Zm43.055-46.564a3.151,3.151,0,0,0,2.058-.766,3.152,3.152,0,0,1-2.059.766Zm-33.184-9.709a3.182,3.182,0,0,0-.926,2.25,3.164,3.164,0,0,1,5.4-2.25l1.024,1.03-1.024-1.03a3.154,3.154,0,0,0-4.475,0ZM11.8,391.849a4.986,4.986,0,0,0,4.971,5,4.927,4.927,0,0,0,2.423-.634,4.925,4.925,0,0,1-2.42.632,5,5,0,1,1,3.866-8.135,4.966,4.966,0,0,0-8.84,3.139Zm9.942,0a5.016,5.016,0,0,0-.22-1.474A5.046,5.046,0,0,1,21.743,391.849Zm-.223-1.486c0-.012-.008-.024-.012-.037C21.512,390.339,21.516,390.352,21.52,390.363ZM21.5,390.3Zm-.019-.059a.013.013,0,0,1,0-.005A.013.013,0,0,0,21.482,390.246Zm-.4-.885,0-.009A.028.028,0,0,0,21.084,389.362Zm-.03-.052-.017-.028Zm31.835-10.577v-8.648l3.325,3.427a3.185,3.185,0,0,1,.9,2.229,3.185,3.185,0,0,0-.9-2.229l-3.325-3.427v8.648ZM46.325,333.6l-2.248-2.271Zm2.259-2.271L46.325,333.6l2.26-2.271-2.26-2.26Zm-23.1,0,2.248,2.271-2.247-2.271,2.247-2.26Zm10.857-1.393a1.29,1.29,0,0,1-.312-.231A1.283,1.283,0,0,0,36.336,329.938Zm2.748-8.306-2.248,2.26,2.249-2.26-2.249-2.272-2.259,2.272,2.259-2.272ZM24.35,300.408a3.227,3.227,0,0,1,.064-.642A3.227,3.227,0,0,0,24.35,300.408ZM9.2,294.8h0a3.137,3.137,0,0,1-1.886-.625A3.136,3.136,0,0,0,9.2,294.8Zm22.63-2.388q0-.062,0-.123Q31.833,292.345,31.833,292.407Zm5.321-104.143a14.376,14.376,0,0,1-2.461.212,14.376,14.376,0,0,0,2.461-.212c.211-.038.415-.075.619-.119C37.569,188.191,37.365,188.228,37.154,188.265Zm-2.524.212a15.352,15.352,0,0,1-2.544-.233A15.256,15.256,0,0,0,34.63,188.477Zm-2.544-.233c-.19-.032-.369-.075-.559-.106C31.717,188.17,31.9,188.213,32.086,188.244Zm2.606-4.542h0a9.415,9.415,0,0,0,1.66-.147A9.425,9.425,0,0,1,34.692,183.7Zm-8.876-8.373a8.413,8.413,0,0,0,5.648,7.8,8.41,8.41,0,0,1-5.646-7.8v-14.2h0ZM20.115,720.9l5.215-5.305H38.691a2.653,2.653,0,0,1,0,5.305Zm9-9.157,5.225-5.306H47.356a2.653,2.653,0,0,1,0,5.306ZM14.09,639.184,25.68,627.531V606.952L7.238,588.245a1.278,1.278,0,0,1,0-1.8l4.093-4.115a1.264,1.264,0,0,1,.9-.374H17.35L15.5,580.1a1.271,1.271,0,0,1-.373-.9v-7.964a1.266,1.266,0,0,1,.373-.9l4.221-4.245a1.266,1.266,0,0,1,1.794,0l2.8,2.815,3.109-3.126a1.272,1.272,0,0,0-.372.9,1.274,1.274,0,0,1,.372-.9,1.269,1.269,0,0,1,2.165.9,1.273,1.273,0,0,0-.373-.9l3.11,3.126,2.8-2.815a1.266,1.266,0,0,1,1.794,0l4.222,4.245a1.27,1.27,0,0,1,.373.9V579.2a1.275,1.275,0,0,1-.373.9l-1.851,1.86H44.41a1.268,1.268,0,0,1,.9.374l4.091,4.115a1.279,1.279,0,0,1,0,1.8L30.957,606.953v21.682a2.639,2.639,0,0,1-.771,1.867l-16.1,16.182Zm20.968-55.462a1.263,1.263,0,0,0,1.17.785h7.658l2.828,2.843-2.828-2.843H36.229a1.263,1.263,0,0,1-1.17-.785,1.284,1.284,0,0,1-.1-.484A1.284,1.284,0,0,0,35.059,583.722Zm5.619-131.515L46.9,445.84h12.6a3.183,3.183,0,0,1,0,6.367ZM27.77,303.592l6.332-6.367h9.879a3.183,3.183,0,0,1,0,6.367Zm7.958-8,6.333-6.367h9.573a3.183,3.183,0,0,1,0,6.367Zm-24.413-10.93,12.952-14v-9.3l-9.208-9.282a2.761,2.761,0,0,1-.808-1.96v-4.911a2.777,2.777,0,0,1,.808-1.959l4.756-4.781a2.747,2.747,0,0,1,3.9,0l3.752,3.773,3.752-3.773a2.747,2.747,0,0,1,3.9,0l4.755,4.781a2.738,2.738,0,0,1,.81,1.959v4.911a2.787,2.787,0,0,1-.8,1.96L30.6,261.452v10.464a3.2,3.2,0,0,1-.856,2.165L11.526,293.787a2.037,2.037,0,0,1-.212.2Zm13.629-27.843-7.015-7.074ZM51.051,243.6,35.429,227.892h.265a3.153,3.153,0,0,0,2.516-1.247,3.153,3.153,0,0,1-2.514,1.245H17.647a3.183,3.183,0,0,1,0-6.367H29.094l-1.612-1.632h0l-6.332-6.367h0l6.333,6.367H9.413a3.183,3.183,0,0,1,0-6.367H21.149l-1.625-1.634h.243a3.151,3.151,0,0,0,2.421-1.129,3.151,3.151,0,0,1-2.418,1.126H3.167a3.184,3.184,0,0,1,0-6.368H13.188l-8.134-8.178a3.145,3.145,0,0,1-.929-2.249V49.787a3.167,3.167,0,1,1,6.333,0V71.55l0,0v0l10.7-10.769V41.008L3.252,22.842a1.278,1.278,0,0,1,0-1.8l4.093-4.116a1.267,1.267,0,0,1,.9-.374h5.121l-1.85-1.86a1.276,1.276,0,0,1-.373-.9V5.83a1.274,1.274,0,0,1,.373-.9L15.736.684a1.265,1.265,0,0,1,1.793,0l2.8,2.815L23.437.374a1.275,1.275,0,0,0-.372.9,1.275,1.275,0,0,1,.372-.9,1.261,1.261,0,0,1,1.794,0L28.338,3.5l2.8-2.815a1.265,1.265,0,0,1,1.793,0l4.222,4.244a1.274,1.274,0,0,1,.374.9v7.963a1.276,1.276,0,0,1-.374.9l-1.85,1.86h5.121a1.267,1.267,0,0,1,.9.374l4.093,4.116a1.278,1.278,0,0,1,0,1.8L27.492,41.022V62.107a3.215,3.215,0,0,1-.918,2.25L10.584,80.423a1.483,1.483,0,0,1-.126.117V99.471l-4.349,4.372a3.148,3.148,0,0,0-.929,2.249,3.148,3.148,0,0,1,.929-2.249l4.349-4.372v49.873l0,0v0l19.3-19.407-.017.017.02-.02c.073-.074.147-.138.22-.212A3.145,3.145,0,0,1,32,129h7.652l-6.343,6.367H32a3.185,3.185,0,0,1-2.316-5.351A3.185,3.185,0,0,0,32,135.37h1.309L10.679,158.121a2.051,2.051,0,0,1-.221.2v35.454l40.919,41.141v8.967A2.7,2.7,0,0,1,51.051,243.6ZM6.2,158.121a3.1,3.1,0,0,0,1.934.919,3.1,3.1,0,0,1-1.933-.919,3.2,3.2,0,0,1-.426-3.969c.056-.088.118-.175.184-.259A3.2,3.2,0,0,0,6.2,158.121Zm2.189-24.195a3.105,3.105,0,0,0,2.065-.806A3.11,3.11,0,0,1,8.393,133.926ZM6.12,133a3.133,3.133,0,0,0,1.819.9A3.13,3.13,0,0,1,6.12,133a3.193,3.193,0,0,1-.934-2.259A3.2,3.2,0,0,0,6.12,133Zm23.569-2.992.023-.024Zm.028-.03.021-.021Zm-23.6-1.489a3.206,3.206,0,0,0-.294.336A3.206,3.206,0,0,1,6.12,128.493ZM31.073,18.319a1.266,1.266,0,0,0,1.17.785H39.9l2.827,2.843L39.9,19.1H32.243a1.266,1.266,0,0,1-1.17-.785,1.28,1.28,0,0,1-.1-.483A1.28,1.28,0,0,0,31.073,18.319ZM21.225,6.2l3.109-3.125Zm-1.793,0-2.8-2.815ZM33.311,135.366,39.654,129H52.52a3.183,3.183,0,0,1,0,6.367ZM10.458,124.132,31.377,103.1h0a9.441,9.441,0,1,1,8.539,5.423,9.427,9.427,0,0,1-4.063-.913l3.3-3.321a3.181,3.181,0,0,0-2.243-5.431,3.181,3.181,0,0,1,2.243,5.431l-3.3,3.321h0L10.595,133a.707.707,0,0,1-.137.117Zm41.65-16.663a3.147,3.147,0,0,1,4.486,0,3.2,3.2,0,0,1,0,4.5L39.654,129H32a3.146,3.146,0,0,0-2.016.722Zm-41.65-8,1.056-1.061,20-20.1a.8.8,0,0,1,.158-.169,3.06,3.06,0,0,1,.264-.266L42.006,67.742V50.424H34.734a3.184,3.184,0,0,1,0-6.368h13.6V61.375l2.85-2.866a3.154,3.154,0,0,1,4.475,0,3.208,3.208,0,0,1,0,4.51L41.6,77.154h9.89a3.184,3.184,0,0,1,0,6.368H35.272L11.514,107.408l-.929.934a1.1,1.1,0,0,1-.127.106Zm37.88-49.046V44.057h7.367a3.184,3.184,0,0,1,0,6.368Zm-6.332-6.368V35.536a3.166,3.166,0,1,1,6.332,0v8.521Z" transform="translate(847.935 562.451)" fill="#fafafa" stroke="rgba(0,0,0,0)" stroke-width="1"/>
  </g>
</svg>
