<svg xmlns="http://www.w3.org/2000/svg" width="35" height="35" viewBox="0 0 35 35">
  <g id="Group_6079" data-name="Group 6079" transform="translate(-1477.186 -209.464)">
    <g id="Group_6078" data-name="Group 6078" transform="translate(1477.186 209.464)">
      <g id="Group_6077" data-name="Group 6077" transform="translate(0)">
        <g id="Group_6076" data-name="Group 6076">
          <path id="Path_8683" data-name="Path 8683" d="M1492.273,266.871a1.217,1.217,0,0,1,.5-.514.629.629,0,0,1,.845.71q.089-.014.213-.026c.082-.008.169-.014.262-.017s.186,0,.28,0,.184.007.271.016l-.218.368q-.123-.006-.252-.005t-.254.007c-.083,0-.163.009-.238.016s-.144.014-.206.023c-.013.025-.024.047-.034.064l-.03.049-.094.159.684.4-.195.329-1.782-1.054a2.1,2.1,0,0,1,.116-.277c.048-.094.092-.177.135-.248m.3.145q-.062.1-.106.2l.584.346.085-.143a1.748,1.748,0,0,0,.112-.219.51.51,0,0,0,.043-.18.265.265,0,0,0-.036-.147.354.354,0,0,0-.128-.118.338.338,0,0,0-.159-.052.271.271,0,0,0-.145.036.488.488,0,0,0-.131.111,1.191,1.191,0,0,0-.119.169" transform="translate(-1489.98 -258.17)" fill="#fff"/>
          <path id="Path_8684" data-name="Path 8684" d="M1502.147,254.924l-1.657-1.292.829-1.064.256.2-.595.763.409.319.53-.679.251.2-.529.679.485.378.639-.82.256.2Z" transform="translate(-1497.282 -246.396)" fill="#fff"/>
          <path id="Path_8685" data-name="Path 8685" d="M1510.614,242.994a1.24,1.24,0,0,1,.615-.377.587.587,0,0,1,.541.2.707.707,0,0,1,.177.271.55.55,0,0,1,.017.286.879.879,0,0,1-.128.3,1.923,1.923,0,0,1-.262.316l-.135.135.521.525-.271.269-1.46-1.469a1.9,1.9,0,0,1,.181-.237q.108-.122.2-.218m.252.215q-.1.1-.163.175l.5.507.131-.13a.942.942,0,0,0,.247-.354.3.3,0,0,0-.1-.312.352.352,0,0,0-.15-.095.285.285,0,0,0-.155,0,.513.513,0,0,0-.157.077,1.212,1.212,0,0,0-.157.132" transform="translate(-1505.681 -238.046)" fill="#fff"/>
          <path id="Path_8686" data-name="Path 8686" d="M1523.37,232.681a1,1,0,0,1-.333.173.682.682,0,0,1-.309.015.709.709,0,0,1-.279-.12,1.088,1.088,0,0,1-.24-.237l-.792-1.047.307-.232.769,1.018a.829.829,0,0,0,.173.176.424.424,0,0,0,.172.077.36.36,0,0,0,.168-.009.5.5,0,0,0,.162-.085.522.522,0,0,0,.127-.134.362.362,0,0,0,.056-.16.429.429,0,0,0-.027-.187.828.828,0,0,0-.122-.214l-.77-1.018.307-.232.791,1.047a1.047,1.047,0,0,1,.161.3.728.728,0,0,1,.038.3.68.68,0,0,1-.1.3,1.018,1.018,0,0,1-.26.274" transform="translate(-1515.099 -227.575)" fill="#fff"/>
          <path id="Path_8687" data-name="Path 8687" d="M1537.6,225.685q-.146.081-.3.154a1.563,1.563,0,0,1-.281.106l-.99-1.784c.035-.029.073-.058.114-.089s.083-.061.127-.09.088-.057.132-.084.086-.051.127-.074a2.078,2.078,0,0,1,.324-.147.9.9,0,0,1,.294-.054.5.5,0,0,1,.249.063.51.51,0,0,1,.189.2.447.447,0,0,1,.061.257.5.5,0,0,1-.091.245.554.554,0,0,1,.338.028.52.52,0,0,1,.232.232.55.55,0,0,1,.03.54,1.3,1.3,0,0,1-.555.494m-.842-.986.236-.131a.78.78,0,0,0,.27-.22.227.227,0,0,0,0-.255.221.221,0,0,0-.217-.126.759.759,0,0,0-.324.107q-.077.043-.135.078c-.039.024-.072.045-.1.065Zm.146.262.311.559c.039-.017.08-.036.124-.058s.083-.042.118-.062a1.44,1.44,0,0,0,.185-.12.569.569,0,0,0,.128-.132.313.313,0,0,0,.054-.146.283.283,0,0,0-.041-.165.257.257,0,0,0-.234-.154.774.774,0,0,0-.349.114Z" transform="translate(-1527.622 -221.674)" fill="#fff"/>
          <path id="Path_8688" data-name="Path 8688" d="M1552.567,219.917l.123.307-1.232.495-.782-1.95.355-.142.659,1.643Z" transform="translate(-1540.181 -217.365)" fill="#fff"/>
          <rect id="Rectangle_369" data-name="Rectangle 369" width="0.382" height="2.101" transform="matrix(0.958, -0.287, 0.287, 0.958, 12.306, 0.752)" fill="#fff"/>
          <path id="Path_8689" data-name="Path 8689" d="M1573.365,212.952a1.167,1.167,0,0,1-.43.009.838.838,0,0,1-.353-.149.955.955,0,0,1-.262-.3,1.439,1.439,0,0,1-.157-.445,1.262,1.262,0,0,1-.01-.474,1.006,1.006,0,0,1,.15-.38.925.925,0,0,1,.28-.272,1.108,1.108,0,0,1,.382-.148,1.3,1.3,0,0,1,.236-.026,1.683,1.683,0,0,1,.19.008.768.768,0,0,1,.138.026l.079.025-.051.328a.893.893,0,0,0-.22-.045,1.006,1.006,0,0,0-.295.016.683.683,0,0,0-.241.095.55.55,0,0,0-.174.177.649.649,0,0,0-.087.258,1.01,1.01,0,0,0,.015.334,1.16,1.16,0,0,0,.1.293.684.684,0,0,0,.16.214.53.53,0,0,0,.227.117.687.687,0,0,0,.3,0,1.1,1.1,0,0,0,.317-.1,1.3,1.3,0,0,0,.179-.113l.161.287a.537.537,0,0,1-.087.066,1.41,1.41,0,0,1-.316.146,1.766,1.766,0,0,1-.221.057" transform="translate(-1558.578 -210.588)" fill="#fff"/>
          <path id="Path_8690" data-name="Path 8690" d="M1588.871,211.541q-.049-.122-.1-.241c-.034-.079-.068-.16-.1-.244l-.886.044q-.036.129-.074.254t-.074.248l-.4.02q.1-.342.193-.632t.18-.549q.089-.259.177-.494t.183-.464l.364-.018q.117.219.229.444t.225.475q.114.249.236.529t.257.609Zm-.7-1.662q-.062.164-.14.4t-.162.509l.69-.034q-.11-.265-.213-.493t-.177-.38" transform="translate(-1571.523 -209.464)" fill="#fff"/>
          <path id="Path_8691" data-name="Path 8691" d="M1610.615,209.953q.047.125.1.3t.106.373q.053.195.1.4l.093.371.207-.32q.112-.173.226-.34t.222-.318q.109-.151.193-.254l.339.057c-.007.155-.016.318-.029.492s-.027.35-.043.531-.035.362-.054.544-.039.36-.06.533l-.37-.062q.049-.364.1-.749t.074-.75l-.105.151-.131.192-.142.214-.14.215-.127.194-.1.154-.281-.047c-.012-.049-.027-.109-.043-.18s-.036-.146-.056-.226l-.063-.249c-.021-.086-.043-.168-.065-.248s-.042-.154-.061-.224-.035-.128-.05-.176q-.094.353-.175.733t-.154.74l-.37-.062q.055-.255.118-.527t.128-.54q.065-.267.132-.517t.131-.461Z" transform="translate(-1590.817 -209.836)" fill="#fff"/>
          <path id="Path_8692" data-name="Path 8692" d="M1632.395,216.848a1.307,1.307,0,0,1-.233.423.984.984,0,0,1-.319.253.9.9,0,0,1-.373.09,1.153,1.153,0,0,1-.746-.26.9.9,0,0,1-.238-.3,1.006,1.006,0,0,1-.094-.4,1.285,1.285,0,0,1,.08-.476,1.269,1.269,0,0,1,.234-.421,1,1,0,0,1,.324-.251.919.919,0,0,1,.376-.09,1.133,1.133,0,0,1,.739.258.894.894,0,0,1,.236.3,1.023,1.023,0,0,1,.094.4,1.27,1.27,0,0,1-.079.475m-1.549-.541a1.088,1.088,0,0,0-.063.31.688.688,0,0,0,.037.267.56.56,0,0,0,.134.209.644.644,0,0,0,.489.171.557.557,0,0,0,.235-.08.689.689,0,0,0,.2-.186,1.179,1.179,0,0,0,.207-.593.688.688,0,0,0-.037-.267.558.558,0,0,0-.134-.209.594.594,0,0,0-.225-.137.6.6,0,0,0-.264-.034.549.549,0,0,0-.236.082.707.707,0,0,0-.195.186,1.067,1.067,0,0,0-.143.281" transform="translate(-1608.511 -214.595)" fill="#fff"/>
          <path id="Path_8693" data-name="Path 8693" d="M1646.519,223.07l-.15.294-1.183-.6.956-1.871.34.174-.805,1.577Z" transform="translate(-1621.214 -219.316)" fill="#fff"/>
          <path id="Path_8694" data-name="Path 8694" d="M1657.968,229.49a1.218,1.218,0,0,1-.339.342.9.9,0,0,1-.389.14,1,1,0,0,1-.424-.048,1.717,1.717,0,0,1-.437-.223q-.1-.072-.231-.172a1.911,1.911,0,0,1-.227-.21l1.158-1.68a1.846,1.846,0,0,1,.279.141c.093.057.175.109.245.158a1.754,1.754,0,0,1,.362.325.993.993,0,0,1,.2.372.875.875,0,0,1,.009.411,1.237,1.237,0,0,1-.2.444m-1.572-.188q.026.022.07.054l.122.085a.767.767,0,0,0,.584.165.9.9,0,0,0,.626-.9.765.765,0,0,0-.363-.482,2.258,2.258,0,0,0-.205-.13Z" transform="translate(-1630.389 -225.138)" fill="#fff"/>
          <path id="Path_8695" data-name="Path 8695" d="M1672.85,242.207a1.3,1.3,0,0,1-.385.291.983.983,0,0,1-.4.1.9.9,0,0,1-.377-.07,1.105,1.105,0,0,1-.335-.22,1.125,1.125,0,0,1-.24-.322.9.9,0,0,1-.094-.374,1,1,0,0,1,.076-.4,1.287,1.287,0,0,1,.267-.4,1.266,1.266,0,0,1,.385-.289,1,1,0,0,1,.4-.1.921.921,0,0,1,.381.071,1.132,1.132,0,0,1,.569.537.894.894,0,0,1,.091.374,1.02,1.02,0,0,1-.076.4,1.27,1.27,0,0,1-.266.4m-1.193-1.125a1.091,1.091,0,0,0-.184.257.692.692,0,0,0-.075.258.559.559,0,0,0,.037.246.6.6,0,0,0,.152.219.6.6,0,0,0,.225.137.559.559,0,0,0,.247.023.688.688,0,0,0,.254-.09,1.182,1.182,0,0,0,.43-.457.688.688,0,0,0,.075-.259.559.559,0,0,0-.037-.246.642.642,0,0,0-.377-.356.549.549,0,0,0-.248-.022.709.709,0,0,0-.254.09,1.068,1.068,0,0,0-.245.2" transform="translate(-1643.646 -236.161)" fill="#fff"/>
          <path id="Path_8696" data-name="Path 8696" d="M1683.39,252.08q.244-.483.533-.982t.6-.974l.262.33-.247.386q-.126.2-.247.389t-.23.376q-.109.184-.2.345c.116-.032.242-.07.377-.112s.275-.088.419-.137.29-.1.438-.151.291-.1.43-.155l.254.321q-.536.188-1.087.356t-1.078.295Z" transform="translate(-1653.817 -244.303)" fill="#fff"/>
          <path id="Path_8697" data-name="Path 8697" d="M1689.278,269.8q.085-.1.166-.2t.168-.2l-.455-.762c-.087.019-.174.037-.259.054l-.254.051-.2-.341q.35-.071.648-.126t.57-.1q.271-.043.52-.076c.166-.022.332-.04.5-.056l.187.313q-.138.206-.285.41t-.313.422q-.167.218-.356.456t-.418.513Zm1.137-1.4q-.174.023-.417.064t-.525.1l.355.594q.182-.222.336-.42t.252-.334" transform="translate(-1658.172 -259.653)" fill="#fff"/>
          <path id="Path_8698" data-name="Path 8698" d="M1477.188,322.164a1.168,1.168,0,0,1,.091-.421.84.84,0,0,1,.227-.309.957.957,0,0,1,.353-.185,1.435,1.435,0,0,1,.469-.05,1.265,1.265,0,0,1,.463.1,1.009,1.009,0,0,1,.334.234.927.927,0,0,1,.2.336,1.111,1.111,0,0,1,.056.406,1.3,1.3,0,0,1-.03.235,1.7,1.7,0,0,1-.052.183.746.746,0,0,1-.057.128l-.042.071-.307-.125a.922.922,0,0,0,.1-.2,1,1,0,0,0,.053-.291.684.684,0,0,0-.036-.256.559.559,0,0,0-.133-.211.656.656,0,0,0-.23-.145,1.022,1.022,0,0,0-.328-.062,1.165,1.165,0,0,0-.308.025.677.677,0,0,0-.246.106.531.531,0,0,0-.166.193.686.686,0,0,0-.068.288,1.109,1.109,0,0,0,.027.332,1.27,1.27,0,0,0,.069.2l-.316.09a.524.524,0,0,1-.044-.1,1.412,1.412,0,0,1-.069-.341,1.739,1.739,0,0,1,0-.228" transform="translate(-1477.186 -305.213)" fill="#fff"/>
          <path id="Path_8699" data-name="Path 8699" d="M1478.888,337.835a1.307,1.307,0,0,1-.482-.034.984.984,0,0,1-.364-.184.905.905,0,0,1-.238-.3,1.155,1.155,0,0,1-.076-.786.9.9,0,0,1,.175-.343,1,1,0,0,1,.321-.252,1.285,1.285,0,0,1,.466-.128,1.27,1.27,0,0,1,.48.036,1,1,0,0,1,.364.188.918.918,0,0,1,.24.3,1.131,1.131,0,0,1,.076.779.893.893,0,0,1-.177.342,1.026,1.026,0,0,1-.321.252,1.271,1.271,0,0,1-.464.128m-.159-1.633a1.089,1.089,0,0,0-.308.073.689.689,0,0,0-.227.145.553.553,0,0,0-.133.209.6.6,0,0,0-.029.265.591.591,0,0,0,.079.251.556.556,0,0,0,.171.18.687.687,0,0,0,.25.1,1.18,1.18,0,0,0,.625-.061.687.687,0,0,0,.227-.145.557.557,0,0,0,.133-.209.593.593,0,0,0,.029-.262.6.6,0,0,0-.079-.254.555.555,0,0,0-.173-.18.706.706,0,0,0-.25-.1,1.072,1.072,0,0,0-.315-.012" transform="translate(-1477.622 -317.718)" fill="#fff"/>
          <path id="Path_8700" data-name="Path 8700" d="M1481.757,353.667q-.094.095-.233.218t-.294.253q-.155.13-.316.26l-.3.24.378.054q.2.029.4.063t.382.069q.182.035.311.069l.09.332q-.215.087-.458.179t-.5.183q-.256.091-.517.179t-.509.169l-.1-.363q.351-.108.721-.227t.712-.247l-.182-.032-.229-.038-.254-.039-.254-.038-.229-.033-.181-.026-.075-.275.145-.115.182-.145.2-.161c.069-.055.135-.109.2-.162l.178-.149c.055-.047.1-.086.139-.12q-.36.063-.739.148t-.736.17l-.1-.363q.255-.057.529-.114t.543-.109q.27-.053.525-.1t.473-.074Z" transform="translate(-1479.262 -332.722)" fill="#fff"/>
          <rect id="Rectangle_370" data-name="Rectangle 370" width="2.101" height="0.382" transform="matrix(0.925, -0.38, 0.38, 0.925, 1.228, 23.954)" fill="#fff"/>
          <path id="Path_8701" data-name="Path 8701" d="M1490.066,379.7a.506.506,0,0,0,.2.234.231.231,0,0,0,.218-.008.255.255,0,0,0,.1-.089.334.334,0,0,0,.045-.126.751.751,0,0,0,.006-.166c0-.062-.012-.131-.024-.206s-.018-.152-.021-.227a.716.716,0,0,1,.021-.213.539.539,0,0,1,.09-.187.533.533,0,0,1,.185-.15.547.547,0,0,1,.488-.033.821.821,0,0,1,.392.4,1.261,1.261,0,0,1,.123.331,1.073,1.073,0,0,1,.027.258l-.329.038a.916.916,0,0,0-.026-.241,1.039,1.039,0,0,0-.091-.238.4.4,0,0,0-.168-.184.21.21,0,0,0-.2.006.236.236,0,0,0-.093.081.3.3,0,0,0-.042.114.713.713,0,0,0-.007.144c0,.052.008.108.016.168.013.1.022.2.025.286a.751.751,0,0,1-.027.236.526.526,0,0,1-.1.193.673.673,0,0,1-.2.155.526.526,0,0,1-.484.026.949.949,0,0,1-.411-.45,1.564,1.564,0,0,1-.148-.407,1.323,1.323,0,0,1-.022-.151.875.875,0,0,1,0-.108l.329-.045a1.293,1.293,0,0,0,.022.238,1.08,1.08,0,0,0,.116.319" transform="translate(-1487.891 -354.302)" fill="#fff"/>
          <rect id="Rectangle_371" data-name="Rectangle 371" width="2.101" height="0.382" transform="translate(2.62 26.795) rotate(-32.807)" fill="#fff"/>
          <path id="Path_8702" data-name="Path 8702" d="M1500.861,400.041q.07-.111.136-.223t.139-.224l-.556-.692q-.126.047-.249.089l-.244.085-.249-.31q.336-.119.625-.215t.551-.176q.262-.081.5-.147t.484-.124l.228.284q-.108.223-.225.446t-.252.461q-.134.239-.289.5t-.343.566Zm.933-1.545q-.169.047-.4.121t-.506.168l.433.539q.15-.245.275-.462t.2-.366" transform="translate(-1496.72 -371.099)" fill="#fff"/>
          <path id="Path_8703" data-name="Path 8703" d="M1517.12,412.293l1.362-1.6,1.027.875-.21.247-.737-.627-.336.395.655.558-.206.242-.656-.558-.4.469.792.674-.21.247Z" transform="translate(-1511.415 -381.733)" fill="#fff"/>
          <path id="Path_8704" data-name="Path 8704" d="M1530.126,421.306l-.183.275-1.105-.736L1530,419.1l.318.212-.981,1.474Z" transform="translate(-1521.466 -388.98)" fill="#fff"/>
          <path id="Path_8705" data-name="Path 8705" d="M1540.54,427.484l.951-1.874,1.2.611-.147.289-.863-.438-.235.462.768.39-.144.284-.768-.39-.278.549.927.471-.146.289Z" transform="translate(-1531.492 -394.597)" fill="#fff"/>
          <path id="Path_8706" data-name="Path 8706" d="M1555.851,434.879a1.176,1.176,0,0,1-.375-.212.841.841,0,0,1-.228-.309.961.961,0,0,1-.072-.391,1.43,1.43,0,0,1,.092-.463,1.261,1.261,0,0,1,.233-.413,1.01,1.01,0,0,1,.323-.25.925.925,0,0,1,.38-.091,1.107,1.107,0,0,1,.4.068,1.294,1.294,0,0,1,.216.1,1.656,1.656,0,0,1,.159.1.8.8,0,0,1,.106.092l.055.062-.211.256a.891.891,0,0,0-.166-.151,1.011,1.011,0,0,0-.262-.137.685.685,0,0,0-.256-.042.552.552,0,0,0-.24.064.656.656,0,0,0-.207.177,1.024,1.024,0,0,0-.157.295,1.17,1.17,0,0,0-.067.3.678.678,0,0,0,.028.266.534.534,0,0,0,.135.216.689.689,0,0,0,.255.151,1.1,1.1,0,0,0,.325.073,1.294,1.294,0,0,0,.212-.006l-.008.329a.53.53,0,0,1-.109.012,1.411,1.411,0,0,1-.154-.005,1.465,1.465,0,0,1-.192-.03,1.8,1.8,0,0,1-.219-.064" transform="translate(-1544.04 -400.755)" fill="#fff"/>
          <path id="Path_8707" data-name="Path 8707" d="M1572.7,435.948l-.069.323-.632-.135-.371,1.731-.376-.081.371-1.731-.631-.135.069-.323Z" transform="translate(-1557.605 -403.21)" fill="#fff"/>
          <path id="Path_8708" data-name="Path 8708" d="M1586.105,439.758a1.3,1.3,0,0,1-.115.469.984.984,0,0,1-.243.327.9.9,0,0,1-.337.183,1.152,1.152,0,0,1-.788-.058.9.9,0,0,1-.308-.231,1,1,0,0,1-.194-.359,1.287,1.287,0,0,1-.047-.481,1.271,1.271,0,0,1,.116-.467,1,1,0,0,1,.248-.327.922.922,0,0,1,.34-.185,1.131,1.131,0,0,1,.78.057.892.892,0,0,1,.307.232,1.027,1.027,0,0,1,.194.359,1.281,1.281,0,0,1,.046.479m-1.636-.121a1.077,1.077,0,0,0,.02.316.681.681,0,0,0,.1.248.553.553,0,0,0,.184.167.6.6,0,0,0,.256.074.594.594,0,0,0,.261-.036.557.557,0,0,0,.207-.138.69.69,0,0,0,.14-.23,1.181,1.181,0,0,0,.046-.626.687.687,0,0,0-.1-.248.556.556,0,0,0-.184-.167.593.593,0,0,0-.253-.073.6.6,0,0,0-.264.035.547.547,0,0,0-.206.14.7.7,0,0,0-.14.23,1.068,1.068,0,0,0-.065.308" transform="translate(-1568.806 -405.787)" fill="#fff"/>
          <path id="Path_8709" data-name="Path 8709" d="M1603.067,438.869a1.219,1.219,0,0,1,.706.118.629.629,0,0,1-.1,1.1q.062.065.142.16t.163.206c.056.074.11.15.162.229s.1.156.141.232l-.426.03q-.065-.1-.139-.211t-.15-.205q-.075-.1-.149-.187c-.048-.058-.094-.11-.135-.156l-.073.008-.057,0-.185.013.056.792-.381.027-.145-2.066a2.062,2.062,0,0,1,.293-.062q.156-.021.281-.03m.05.328c-.08.006-.155.014-.223.025l.048.677.167-.012a1.734,1.734,0,0,0,.244-.032.515.515,0,0,0,.173-.067.262.262,0,0,0,.1-.113.349.349,0,0,0,.025-.172.339.339,0,0,0-.048-.161.27.27,0,0,0-.112-.1.5.5,0,0,0-.166-.045,1.2,1.2,0,0,0-.207,0" transform="translate(-1584.604 -406.026)" fill="#fff"/>
          <path id="Path_8710" data-name="Path 8710" d="M1620.677,438.458q-.068-.112-.139-.221t-.139-.224l-.867.19c-.01.089-.02.177-.031.263s-.022.172-.032.257l-.388.085q.044-.354.086-.655t.088-.571q.045-.27.093-.517t.1-.488l.356-.078q.152.2.3.4t.3.431q.154.227.32.483t.354.559Zm-.968-1.523q-.034.172-.072.416t-.075.529l.675-.148q-.152-.243-.291-.452c-.093-.139-.171-.254-.237-.345" transform="translate(-1598.818 -403.986)" fill="#fff"/>
          <path id="Path_8711" data-name="Path 8711" d="M1634.3,434.767l.112.311-1.25.448-.709-1.978.36-.129.6,1.667Z" transform="translate(-1610.285 -401.332)" fill="#fff"/>
          <path id="Path_8712" data-name="Path 8712" d="M1645.145,422.016a.508.508,0,0,1-.173.056.422.422,0,0,1-.167-.011.382.382,0,0,1-.147-.079.493.493,0,0,1-.116-.151l-.009-.016.218-.113a.271.271,0,0,0,.119.114.18.18,0,0,0,.16-.017.177.177,0,0,0,.1-.12.288.288,0,0,0-.022-.164l.215-.112.01.019a.416.416,0,0,1,.038.346.453.453,0,0,1-.23.25m1.591,1.763q-.1-.091-.192-.177t-.193-.18l-.787.41q.021.133.039.262t.036.256l-.352.184q-.051-.353-.088-.655t-.065-.575q-.027-.273-.045-.523t-.027-.5l.323-.168q.2.15.393.308t.4.337q.208.179.435.382t.487.447Zm-1.333-1.217q.012.175.039.42t.066.53l.613-.319q-.211-.195-.4-.36t-.319-.271" transform="translate(-1620.622 -390.967)" fill="#fff"/>
          <path id="Path_8713" data-name="Path 8713" d="M1666.985,414.511a1.173,1.173,0,0,1-.377.208.84.84,0,0,1-.382.032.956.956,0,0,1-.371-.144,1.434,1.434,0,0,1-.346-.321,1.26,1.26,0,0,1-.229-.415,1.011,1.011,0,0,1-.043-.406.92.92,0,0,1,.122-.371,1.11,1.11,0,0,1,.269-.309,1.3,1.3,0,0,1,.2-.132,1.76,1.76,0,0,1,.172-.081.775.775,0,0,1,.134-.041l.082-.015.107.314a.9.9,0,0,0-.216.062,1,1,0,0,0-.254.151.688.688,0,0,0-.169.2.552.552,0,0,0-.072.238.656.656,0,0,0,.042.269,1.026,1.026,0,0,0,.168.288,1.16,1.16,0,0,0,.221.216.673.673,0,0,0,.241.115.531.531,0,0,0,.255,0,.691.691,0,0,0,.262-.138,1.1,1.1,0,0,0,.232-.238,1.308,1.308,0,0,0,.106-.183l.276.18a.533.533,0,0,1-.047.1,1.4,1.4,0,0,1-.085.128,1.491,1.491,0,0,1-.127.148,1.8,1.8,0,0,1-.169.153" transform="translate(-1638.374 -383.305)" fill="#fff"/>
          <path id="Path_8714" data-name="Path 8714" d="M1675.29,405.448l-1.507-1.464.94-.967.233.226-.674.694.372.361.6-.618.228.222-.6.617.441.429.725-.746.233.226Z" transform="translate(-1645.532 -375.863)" fill="#fff"/>
          <path id="Path_8715" data-name="Path 8715" d="M1685.369,391.828q-.2-.019-.436-.034t-.479-.024q-.244-.009-.479-.008t-.434.014l1.212.89-.222.3-1.694-1.244.185-.252q.174-.022.4-.031t.458-.012q.235,0,.466,0t.424.02l-1.124-.826.224-.305,1.694,1.244Z" transform="translate(-1653.34 -364.419)" fill="#fff"/>
          <path id="Path_8716" data-name="Path 8716" d="M1692.33,377.684l.291.158-.308.568,1.556.844-.184.338-1.556-.844-.308.568-.291-.158Z" transform="translate(-1660.837 -353.612)" fill="#fff"/>
          <path id="Path_8717" data-name="Path 8717" d="M1698.652,367.266a1.219,1.219,0,0,1,.407-.589.628.628,0,0,1,.95.561c.057-.019.125-.039.206-.06s.165-.041.256-.06.183-.035.276-.049.183-.024.27-.029l-.154.4q-.123.014-.25.037t-.25.048q-.122.026-.233.055c-.073.019-.14.038-.2.056-.009.027-.016.05-.023.069l-.021.054-.067.173.741.287-.138.356-1.931-.747a2.055,2.055,0,0,1,.069-.292q.047-.151.092-.267m.318.094q-.044.113-.073.213l.633.245.06-.156a1.733,1.733,0,0,0,.074-.234.512.512,0,0,0,.013-.185.263.263,0,0,0-.06-.139.349.349,0,0,0-.145-.1.339.339,0,0,0-.166-.025.271.271,0,0,0-.137.059.5.5,0,0,0-.111.131,1.172,1.172,0,0,0-.09.186" transform="translate(-1666.839 -344.097)" fill="#fff"/>
          <path id="Path_8718" data-name="Path 8718" d="M1706.635,352.3q-.13.014-.259.032t-.261.031l-.2.865q.115.07.225.14l.219.138-.088.388q-.3-.19-.556-.356t-.48-.322q-.226-.155-.428-.3c-.135-.1-.268-.2-.4-.3l.08-.356q.243-.054.489-.1t.518-.089q.271-.043.573-.085t.656-.083Zm-1.79.23q.141.1.346.242t.446.293l.153-.674q-.284.035-.532.072t-.413.068" transform="translate(-1671.944 -331.512)" fill="#fff"/>
          <path id="Path_8719" data-name="Path 8719" d="M1708.38,337.865l.329.031-.125,1.322-2.092-.2.036-.38,1.763.167Z" transform="translate(-1673.739 -319.503)" fill="#fff"/>
          <path id="Path_8720" data-name="Path 8720" d="M1702.851,320.8a.5.5,0,0,1-.024.18.416.416,0,0,1-.081.146.382.382,0,0,1-.134.1.5.5,0,0,1-.187.041h-.018l-.009-.245a.27.27,0,0,0,.154-.059.18.18,0,0,0,.054-.152.176.176,0,0,0-.065-.145.288.288,0,0,0-.158-.05l-.009-.242h.021a.418.418,0,0,1,.329.113.457.457,0,0,1,.127.315m2.273-.685q-.122.047-.242.1c-.08.033-.162.066-.245.1l.034.887q.129.038.253.077l.247.077.015.4q-.341-.105-.629-.2t-.547-.187q-.259-.091-.493-.182t-.462-.188l-.014-.364q.22-.115.446-.224t.477-.22q.25-.111.531-.23t.612-.25Zm-1.669.685q.163.064.4.144t.507.167l-.027-.691c-.177.072-.343.141-.5.207s-.281.124-.382.172" transform="translate(-1670.187 -303.923)" fill="#fff"/>
          <path id="Path_8721" data-name="Path 8721" d="M1704.274,293.448l-.476.088a.055.055,0,0,0-.035.085l.274.4a.055.055,0,0,1-.076.077l-.4-.274a.055.055,0,0,0-.085.036l-.088.476a.055.055,0,0,1-.109,0l-.088-.476a.055.055,0,0,0-.085-.036l-.4.274a.055.055,0,0,1-.077-.077l.275-.4a.055.055,0,0,0-.035-.085l-.476-.088a.055.055,0,0,1,0-.109l.476-.088a.055.055,0,0,0,.035-.085l-.275-.4a.055.055,0,0,1,.077-.077l.4.274a.055.055,0,0,0,.085-.036l.088-.476a.055.055,0,0,1,.109,0l.088.476a.055.055,0,0,0,.085.036l.4-.274a.055.055,0,0,1,.076.077l-.274.4a.055.055,0,0,0,.035.085l.476.088a.055.055,0,0,1,0,.109" transform="translate(-1670.167 -280.539)" fill="#fff" fill-rule="evenodd"/>
          <path id="Path_8722" data-name="Path 8722" d="M1485.365,293.448l-.476.088a.055.055,0,0,0-.035.085l.274.4a.055.055,0,0,1-.076.077l-.4-.274a.055.055,0,0,0-.085.036l-.088.476a.055.055,0,0,1-.109,0l-.088-.476a.055.055,0,0,0-.085-.036l-.4.274a.055.055,0,0,1-.077-.077l.275-.4a.055.055,0,0,0-.035-.085l-.476-.088a.055.055,0,0,1,0-.109l.476-.088a.055.055,0,0,0,.035-.085l-.275-.4a.055.055,0,0,1,.077-.077l.4.274a.055.055,0,0,0,.085-.036l.088-.476a.055.055,0,0,1,.109,0l.088.476a.055.055,0,0,0,.085.036l.4-.274a.055.055,0,0,1,.076.077l-.274.4a.055.055,0,0,0,.035.085l.476.088a.055.055,0,0,1,0,.109" transform="translate(-1482.579 -280.539)" fill="#fff" fill-rule="evenodd"/>
          <path id="Path_8723" data-name="Path 8723" d="M1529.179,246.974a14.286,14.286,0,1,1-14.286-14.321,14.3,14.3,0,0,1,14.286,14.321" transform="translate(-1497.384 -229.461)" fill="#fff"/>
          <path id="Path_8724" data-name="Path 8724" d="M1560.654,363.969a1.056,1.056,0,0,0-.527-.925l-.846-.489a.455.455,0,0,0-.455,0l-.846.489a1.055,1.055,0,0,0-.527.925v.09l-.045-.078a.852.852,0,0,1,.192-1.077v-.05a.852.852,0,0,1,.845-.849h.3a.145.145,0,0,0,.125-.072l1.629-2.823.482.178-1.547,2.681a.024.024,0,0,0,.021.036h.208a.851.851,0,0,1,.845.849v.05a.852.852,0,0,1,.192,1.077l-.045.078Zm-2.1-1.636a1.044,1.044,0,0,0-.908.534l0,.005a.806.806,0,0,1,.073-.048l.85-.491h-.012m1.736.432.1.06a.808.808,0,0,1,.073.048l0-.005a1.056,1.056,0,0,0-.919-.538Z" transform="translate(-1545.832 -337.61)" fill="#e40027"/>
          <path id="Path_8725" data-name="Path 8725" d="M1616.479,363.682a.852.852,0,0,1,.192-1.077v-.05a.851.851,0,0,1,.845-.849h.208a.023.023,0,0,0,.021-.012.022.022,0,0,0,0-.024l-1.526-2.643.433-.263,1.657,2.87a.144.144,0,0,0,.125.072h.3a.851.851,0,0,1,.845.849v.05a.851.851,0,0,1,.192,1.077l-.045.078v-.09a1.056,1.056,0,0,0-.527-.925l-.846-.488a.455.455,0,0,0-.456,0l-.846.488a1.056,1.056,0,0,0-.527.925v.09Zm2.881-1.217.1.059a.832.832,0,0,1,.073.048l0-.006a1.056,1.056,0,0,0-.919-.538Zm-1.736-.432a1.044,1.044,0,0,0-.908.534l0,.005a.864.864,0,0,1,.073-.048l.85-.491h-.012" transform="translate(-1596.326 -337.312)" fill="#e40027"/>
          <path id="Path_8726" data-name="Path 8726" d="M1574.9,333.694a13.926,13.926,0,0,0-3.34-1.854,1.153,1.153,0,0,1-.678-1.049v-2.456h8.037v2.456a1.153,1.153,0,0,1-.678,1.049,13.941,13.941,0,0,0-3.341,1.854" transform="translate(-1557.392 -311.246)" fill="#0071bb"/>
          <rect id="Rectangle_372" data-name="Rectangle 372" width="8.037" height="3.738" transform="translate(13.491 13.155)" fill="#e40027"/>
          <path id="Path_8727" data-name="Path 8727" d="M1584.4,262.388l.188.613-1.915,3.3h4.7l-.709-1.207.518-.147-.316-.548.528-.186-.32-.555.582-.195-.953-1.72a2.056,2.056,0,0,0-2.736-.742c-.205.084-.405.446-.405.446l.353.215Z" transform="translate(-1567.553 -253.4)" fill="#ffc01a"/>
          <path id="Path_8728" data-name="Path 8728" d="M1611.932,355.263l-.723.365.662,1.145a.808.808,0,1,1,1.4-.808l-.6-1.043Z" transform="translate(-1592.07 -334.108)" fill="#ffc01a"/>
          <path id="Path_8729" data-name="Path 8729" d="M1587.515,364.388q-.16.121-.3.241-.135-.12-.294-.24c-.153-.116-.323-.233-.508-.349-.321,4.542-.564,5.388-1.248,6.071a.946.946,0,0,0,1.47-.331.637.637,0,1,0,1.16,0,.946.946,0,0,0,1.47.331c-.683-.683-.927-1.53-1.248-6.072-.184.116-.354.233-.508.349" transform="translate(-1569.711 -341.772)" fill="#ffc01a"/>
          <path id="Path_8730" data-name="Path 8730" d="M1576.053,253.565v-2.3h-.657v-.4h.657v-.657h.4v.657h.657v.4h-.657v2.3Z" transform="translate(-1561.376 -244.37)" fill="#ffc01a"/>
          <path id="Path_8731" data-name="Path 8731" d="M1575.3,355.258l-.736-.341-.6,1.044a.808.808,0,0,1,1.4.808l.662-1.146Z" transform="translate(-1560.141 -334.104)" fill="#ffc01a"/>
          <path id="Path_8732" data-name="Path 8732" d="M1529.634,282.108v6.744l-1.847,4.179c-1.27,2.876-2.222,2.157-2.222,2.157l1.594-3.61c-1.383,3.067-2.314,2.363-2.314,2.363l1.675-3.791c-1.383,3.068-2.315,2.365-2.315,2.365l1.641-3.714c-1.25,2.767-2.182,2.063-2.182,2.063L1525.37,287c-1.19,2.635-2.123,1.931-2.123,1.931l1.713-3.879c-.941,2.131-1.895,1.413-1.895,1.413l2.97-6.721.642-1.455a9.339,9.339,0,0,1,.662-1.27,3.123,3.123,0,0,1,.2-.284,1.36,1.36,0,0,1,1.024-.662c.593,0,1.057.716.917,1.52a1.018,1.018,0,0,1-.917.943.74.74,0,0,1-.274-.052,2.944,2.944,0,0,0-.267,1.244,2.266,2.266,0,0,0,1.615,2.38" transform="translate(-1516.474 -268.468)" fill="#ffc01a"/>
          <path id="Path_8733" data-name="Path 8733" d="M1634.025,285.053l1.713,3.879s-.933.7-2.123-1.931l1.706,3.863s-.932.7-2.182-2.063l1.641,3.714s-.931.7-2.315-2.363l1.675,3.789s-.933.7-2.315-2.365l1.6,3.612s-.952.719-2.223-2.157l-1.846-4.179v-6.744a2.265,2.265,0,0,0,1.615-2.379,2.948,2.948,0,0,0-.266-1.244.736.736,0,0,1-.274.053,1.276,1.276,0,0,1,0-2.463,1.358,1.358,0,0,1,1.024.662,3.048,3.048,0,0,1,.2.284c.232.361,1.3,2.708,1.3,2.708l2.977,6.738s-.953.718-1.895-1.414" transform="translate(-1607.491 -268.468)" fill="#ffc01a"/>
          <path id="Path_8734" data-name="Path 8734" d="M1590.033,335.934a.906.906,0,0,0-.208-.215.869.869,0,0,0-.208.2.912.912,0,0,0,.208.214.869.869,0,0,0,.208-.2" transform="translate(-1573.59 -317.683)" fill="#ffc01a"/>
          <path id="Path_8735" data-name="Path 8735" d="M1577.546,325.067a2.4,2.4,0,0,1-.613-.522,2.909,2.909,0,0,1-.72.522,4.39,4.39,0,0,1,.934.522,1.8,1.8,0,0,1,.4-.522" transform="translate(-1562.083 -308.094)" fill="#ffc01a"/>
          <path id="Path_8736" data-name="Path 8736" d="M1614.841,324.545a2.386,2.386,0,0,1-.613.522,1.8,1.8,0,0,1,.4.522,4.382,4.382,0,0,1,.935-.522,2.9,2.9,0,0,1-.721-.522" transform="translate(-1594.674 -308.094)" fill="#ffc01a"/>
          <path id="Path_8737" data-name="Path 8737" d="M1594.321,307.109l-.3.107a.055.055,0,0,0,0,.1l.3.107a.055.055,0,0,1,.032.076l-.138.289a.055.055,0,0,0,.074.074l.292-.137a.056.056,0,0,1,.077.031l.108.3a.056.056,0,0,0,.1,0l.108-.3a.056.056,0,0,1,.076-.031l.292.137a.056.056,0,0,0,.074-.074l-.139-.289a.055.055,0,0,1,.032-.076l.3-.107a.055.055,0,0,0,0-.1l-.3-.107a.055.055,0,0,1-.032-.076l.139-.289a.056.056,0,0,0-.074-.074l-.292.137a.056.056,0,0,1-.076-.031l-.108-.3a.056.056,0,0,0-.1,0l-.108.3a.056.056,0,0,1-.077.031l-.292-.137a.055.055,0,0,0-.074.074l.138.289a.055.055,0,0,1-.032.076" transform="translate(-1577.309 -292.565)" fill="#ffc01a"/>
          <path id="Path_8738" data-name="Path 8738" d="M1584.72,304.323a1.463,1.463,0,0,1,.293,1.682,1.5,1.5,0,0,1-1.031.707c-.468,0-.553.181-.867.182s-.4-.182-.87-.182a1.505,1.505,0,0,1-1.031-.707,1.462,1.462,0,0,1,.293-1.682,1.585,1.585,0,0,0-1.028,1.974,2.282,2.282,0,0,0,1.34,1.324c-.12.151-.258.317-.368.488a1.557,1.557,0,0,1,1.113.895v1.6c-.216.188-.562.416-.562.734,0,.148.131.406.557.406a.779.779,0,0,0,.557.23.77.77,0,0,0,.554-.23c.426,0,.557-.258.557-.406,0-.318-.346-.546-.562-.734V309a1.556,1.556,0,0,1,1.113-.895c-.11-.171-.241-.337-.361-.488a2.271,2.271,0,0,0,1.333-1.324,1.585,1.585,0,0,0-1.028-1.974" transform="translate(-1565.603 -290.635)" fill="#ffc01a"/>
          <path id="Path_8739" data-name="Path 8739" d="M1607.923,335.918a.861.861,0,0,0-.208-.2.9.9,0,0,0-.208.214.865.865,0,0,0,.208.2.911.911,0,0,0,.208-.214" transform="translate(-1588.929 -317.684)" fill="#ffc01a"/>
          <path id="Path_8740" data-name="Path 8740" d="M1590.949,342.575a.078.078,0,0,1-.056-.025c-.115-.116-.122-.663-.122-.775a.176.176,0,0,1-.172-.178v-.02h.191a.18.18,0,0,1,.128.053.177.177,0,0,1,.052.127l0,.819Z" transform="translate(-1574.432 -322.691)" fill="#ffc01a"/>
          <path id="Path_8741" data-name="Path 8741" d="M1606.854,342.575l0-.819a.18.18,0,0,1,.181-.18h.191v.02a.176.176,0,0,1-.172.178c0,.112-.007.659-.122.775a.079.079,0,0,1-.056.025Z" transform="translate(-1588.369 -322.691)" fill="#ffc01a"/>
          <path id="Path_8742" data-name="Path 8742" d="M1615.414,339.463a.929.929,0,0,1,.165.015.811.811,0,1,0-1.106,1.1.9.9,0,0,1-.015-.163.952.952,0,0,1,.956-.948" transform="translate(-1594.521 -320.527)" fill="#ffc01a"/>
          <path id="Path_8743" data-name="Path 8743" d="M1579.976,342.766a.213.213,0,1,0,.215.213.213.213,0,0,0-.215-.213" transform="translate(-1565.14 -323.723)" fill="#ffc01a"/>
          <path id="Path_8744" data-name="Path 8744" d="M1579.976,346.626a.213.213,0,1,0,.215.213.213.213,0,0,0-.215-.213" transform="translate(-1565.14 -327.032)" fill="#ffc01a"/>
          <path id="Path_8745" data-name="Path 8745" d="M1583.611,344.374a.215.215,0,0,0,.27-.136.212.212,0,0,0-.138-.268.215.215,0,0,0-.27.136.212.212,0,0,0,.138.268" transform="translate(-1568.313 -324.745)" fill="#ffc01a"/>
          <path id="Path_8746" data-name="Path 8746" d="M1582.44,339.981a.211.211,0,0,0-.047-.3.216.216,0,0,0-.3.047.211.211,0,0,0,.047.3.216.216,0,0,0,.3-.047" transform="translate(-1567.103 -321.046)" fill="#ffc01a"/>
          <path id="Path_8747" data-name="Path 8747" d="M1577.859,339.73a.216.216,0,0,0-.3-.047.211.211,0,0,0-.048.3.216.216,0,0,0,.3.047.211.211,0,0,0,.048-.3" transform="translate(-1563.175 -321.046)" fill="#ffc01a"/>
          <path id="Path_8748" data-name="Path 8748" d="M1576.2,343.969a.212.212,0,0,0-.137.268.215.215,0,0,0,.27.136.212.212,0,0,0,.137-.268.215.215,0,0,0-.27-.136" transform="translate(-1561.959 -324.745)" fill="#ffc01a"/>
          <path id="Path_8749" data-name="Path 8749" d="M1581.316,266.12a7.655,7.655,0,0,0-1.7-.458v-.221a6.633,6.633,0,0,0,1.018.08.036.036,0,0,0,.028-.058.938.938,0,0,0-.575-.23c-.557-.08-.733.085-.8.378a.613.613,0,0,1-.055-.81c.223-.315.588-.387,1.23-.219-.047.272.35.279.385.373.043.119-.008.278.044.367.092.159.263.165.412.428a1.211,1.211,0,0,1,.121.285.074.074,0,0,1-.106.085" transform="translate(-1564.546 -256.622)" fill="#e40027" fill-rule="evenodd"/>
          <path id="Path_8750" data-name="Path 8750" d="M1594.635,354.809a.139.139,0,0,1-.127-.047.173.173,0,0,1-.023-.035.105.105,0,0,0-.081-.067h-.01l-.032,0a.151.151,0,0,1-.058,0,.008.008,0,0,1,0-.007.023.023,0,0,1,.007-.02.25.25,0,0,1,.156-.039.384.384,0,0,1,.128.019c.036.014.1.044.105.1a.1.1,0,0,1-.061.1" transform="translate(-1577.606 -333.865)" fill="#040504" fill-rule="evenodd"/>
          <path id="Path_8751" data-name="Path 8751" d="M1603.37,354.652c0,.006,0,.007,0,.007a.148.148,0,0,1-.058,0,.315.315,0,0,0-.042,0c-.044,0-.064.039-.081.067a.142.142,0,0,1-.023.034.139.139,0,0,1-.127.047.094.094,0,0,1-.06-.1c.008-.052.069-.082.1-.1a.365.365,0,0,1,.285.02.023.023,0,0,1,.007.02" transform="translate(-1585.042 -333.865)" fill="#040504" fill-rule="evenodd"/>
          <path id="Path_8752" data-name="Path 8752" d="M1560.043,386.5a1.623,1.623,0,0,1-1.6-1.346,1.057,1.057,0,0,1,.526-.918l.846-.489a.457.457,0,0,1,.458,0l.846.489a1.059,1.059,0,0,1,.526.912,1.625,1.625,0,0,1-1.6,1.353" transform="translate(-1546.823 -358.726)" fill="#fff"/>
          <path id="Path_8753" data-name="Path 8753" d="M1542.622,261.434a1.4,1.4,0,0,0,.522.1,1.133,1.133,0,0,0,.539-.125l.2-.116-.116-.2-3.809-6.6a7.379,7.379,0,0,0-.72-1.057,2.976,2.976,0,0,0-.222-.245,1.737,1.737,0,0,0-1.244-.6,1.226,1.226,0,0,0,0,2.451,1.287,1.287,0,0,0,.171-.011,1.706,1.706,0,0,1-.97,2.351v-1.26h-2.106l-.488-.846h.033a.682.682,0,0,0,.324-.077l.2-.115-.116-.2-.22-.382h.034a.671.671,0,0,0,.325-.078l.2-.115-.115-.2-.22-.382h.034a.672.672,0,0,0,.324-.077l.2-.116-.115-.2-1-1.742a2.116,2.116,0,0,0-1.9-1.141,3.112,3.112,0,0,0-1.172.25.816.816,0,0,0-.4.295,2.568,2.568,0,0,0-.622-.089h-.054v-.537h.693v-.81h-.693v-.694h-.808v.694h-.693v.81h.693v.936l-.016.021a.9.9,0,0,0,.016,1.087v.383h.808v-.14l.208.041a4.8,4.8,0,0,1,1.249.359.275.275,0,0,0,.09.031l-1.749,3.031H1527.8v1.259a1.706,1.706,0,0,1-.968-2.35,1.256,1.256,0,0,0,.17.011,1.226,1.226,0,0,0,0-2.451,1.74,1.74,0,0,0-1.244.6,2.978,2.978,0,0,0-.221.245,5.816,5.816,0,0,0-.37.5c-.116.171-.234.36-.35.562l-3.808,6.6-.117.2.2.116a1.136,1.136,0,0,0,.538.125,1.4,1.4,0,0,0,.522-.1l-.953,1.653-.116.2.2.116a.924.924,0,0,0,.445.1,1.44,1.44,0,0,0,.673-.179l-.763,1.324-.116.2.2.115a.881.881,0,0,0,.426.095,1.467,1.467,0,0,0,.707-.2l-.646,1.12-.116.2.2.116a.811.811,0,0,0,.391.086,1.488,1.488,0,0,0,.77-.239l-.57.988-.116.2.2.115a.792.792,0,0,0,.391.087,1.49,1.49,0,0,0,.769-.239l-.487.843-.115.2.2.115a.878.878,0,0,0,.426.1c.514,0,1.318-.334,2.235-1.922l1.631-2.828a1.528,1.528,0,0,0,.7.628l.121.053-.449.777-.116.2.2.116a1.082,1.082,0,0,0,.364.13l-1.169,2.026h-.285a1.1,1.1,0,0,0-1.094,1.039.455.455,0,0,0-.028.053,1.105,1.105,0,0,0-.169,1.267,1.971,1.971,0,0,0,3.866,0,1.1,1.1,0,0,0-.168-1.269l-.028-.053a1.1,1.1,0,0,0-1-1.035l.9-1.557a1.078,1.078,0,0,0,.294.25l.2.115.115-.2.526-.913c.178.1.346.2.5.291-.326,4.563-.573,5.455-1.239,6.122l-.125.125.088.153a.934.934,0,0,0,.792.352,1.277,1.277,0,0,0,.878-.349,1.975,1.975,0,0,0,.578.684l.116.067.115-.067a1.99,1.99,0,0,0,.577-.683,1.28,1.28,0,0,0,.878.348.933.933,0,0,0,.792-.352l.089-.153-.125-.125c-.666-.667-.913-1.559-1.24-6.123.156-.095.322-.192.5-.291l.528.914.115.2.2-.115a1.07,1.07,0,0,0,.294-.25l.9,1.557a1.1,1.1,0,0,0-1,1.035c-.01.017-.019.035-.028.053a1.105,1.105,0,0,0-.169,1.267,1.971,1.971,0,0,0,3.867,0,1.1,1.1,0,0,0-.17-1.267c-.008-.018-.018-.035-.027-.052a1.105,1.105,0,0,0-1.093-1.04h-.287l-1.169-2.026a1.087,1.087,0,0,0,.364-.13l.2-.116-.116-.2-.448-.778.119-.053a1.519,1.519,0,0,0,.7-.628l1.632,2.829c.916,1.588,1.721,1.922,2.234,1.922a.875.875,0,0,0,.425-.1l.2-.115-.116-.2-.486-.843a1.487,1.487,0,0,0,.769.239.805.805,0,0,0,.392-.087l.2-.115-.116-.2-.569-.988a1.49,1.49,0,0,0,.769.239.791.791,0,0,0,.391-.087l.2-.115-.116-.2-.645-1.12a1.465,1.465,0,0,0,.707.2.877.877,0,0,0,.426-.095l.2-.116-.116-.2-.764-1.324a1.446,1.446,0,0,0,.675.179.93.93,0,0,0,.445-.1l.2-.116-.116-.2Zm.895-.237c-.178.082-1.041.373-1.917-1.144l-1.631-2.827a1.745,1.745,0,0,0,.789.323h0a.035.035,0,0,0,.035-.03,2.974,2.974,0,0,0-.1-1.209Zm-5.067-1.961-.274-.475a3.5,3.5,0,0,0,.848-.708l.033.059a2.873,2.873,0,0,1,.336,1.682,1.4,1.4,0,0,1-.943-.557m.272,1.718a1.4,1.4,0,0,1-.943-.557l-.7-1.217a3.466,3.466,0,0,0,1.036-.384l.274.476a2.867,2.867,0,0,1,.335,1.682m.4-2.88-.046-.081a3.468,3.468,0,0,0,.621-1.1l.033.057h0a2.862,2.862,0,0,1,.335,1.682,1.4,1.4,0,0,1-.943-.557m.608-3.448.67,1.16h0l.005.008a2.886,2.886,0,0,1,.331,1.674,1.4,1.4,0,0,1-.943-.557l-.065-.113a3.473,3.473,0,0,0-.11-2.363c.037.062.074.125.112.19m-2.984,3.861a2.753,2.753,0,0,0,2.4-2.718,2.721,2.721,0,0,0-.455-1.51.05.05,0,0,0-.069-.015.052.052,0,0,0-.015.07,2.636,2.636,0,0,1-1.863,4.07v-.674a1.968,1.968,0,0,0,1.35-2.964.036.036,0,0,0-.041-.016.959.959,0,1,1-.279-1.876,1.491,1.491,0,0,1,1.055.524,2.637,2.637,0,0,1,.205.227h0a3.4,3.4,0,0,1-2.291,5.548Zm0,.74c.087-.008.174-.019.26-.035l.715,1.24a2.868,2.868,0,0,1,.336,1.682,1.4,1.4,0,0,1-.943-.557l-.367-.638Zm0,3.776v-1.939l.305.529a2.874,2.874,0,0,1,.335,1.682,1.744,1.744,0,0,1-.642-.245c0-.009,0-.019,0-.027m-7.9-12.866v-.347h.693V249.1h.346v.694h.693v.347h-.693v1a.729.729,0,0,0-.346.2v-1.2Zm1.531,2.3c-.172-.034-.336-.066-.483-.1l-.008,0v.234h-.346v-.215a.031.031,0,0,0,.012,0,.039.039,0,0,0,.023-.026.427.427,0,0,1,.311-.365v.215a7,7,0,0,0,1.073.083.075.075,0,0,0,.058-.121,1.03,1.03,0,0,0-.629-.255c-.512-.074-.769.033-.869.368a.636.636,0,0,1-.008-.767c.224-.318.592-.385,1.229-.225-.014.192.169.266.292.315.05.02.111.045.12.064a.56.56,0,0,1,.018.185.4.4,0,0,0,.031.208.557.557,0,0,0,.175.175.81.81,0,0,1,.259.277,1.245,1.245,0,0,1,.125.293.043.043,0,0,1-.014.044.041.041,0,0,1-.046,0,4.968,4.968,0,0,0-1.322-.385m1.568-.972a.337.337,0,0,1,.267-.026.346.346,0,1,1-.552.278c0-.01,0-.02,0-.029a.212.212,0,1,0,.285-.223m-.058,1.7a.65.65,0,0,0,.1-.28.755.755,0,0,0-.067-.331,1.4,1.4,0,0,0-.2-.379c-.017-.017.011-.029.03-.014a.43.43,0,0,0,.192.06c.522.06.7-.382.593-.768.046-.094.289-.058.488-.009a.044.044,0,0,0,.031-.082,1.488,1.488,0,0,0-1.546-.063c-.323.184-.5.1-.54-.016l-.005-.019c-.027-.158.1-.255.316-.344a2.9,2.9,0,0,1,1.086-.233,1.889,1.889,0,0,1,1.7,1.026l.987,1.71c-.019.012-.479.258-.954-.567h0a.036.036,0,0,0-.049-.013.037.037,0,0,0-.013.049h0l.761,1.319c-.116.042-.512.121-.915-.568a.036.036,0,0,0-.063.036l.754,1.307c-.113.041-.5.117-.894-.535a.036.036,0,0,0-.049-.012.036.036,0,0,0-.013.049l.677,1.172a.68.68,0,0,1-.8-.364.035.035,0,0,0-.04-.017.036.036,0,0,0-.027.035,1.475,1.475,0,0,0,.141.617.814.814,0,0,1-.755-.495.035.035,0,0,0-.036-.018.036.036,0,0,0-.03.026,1.515,1.515,0,0,1-.358.643,1.539,1.539,0,0,1-.357-.643.036.036,0,0,0-.031-.026.035.035,0,0,0-.035.018.8.8,0,0,1-.755.495,1.476,1.476,0,0,0,.141-.617.037.037,0,0,0-.026-.035.035.035,0,0,0-.04.017.668.668,0,0,1-.833.352Zm-1.468,2.544,0,0a.741.741,0,0,0,.852-.269,1.382,1.382,0,0,1-.15.5.037.037,0,0,0,0,.032.034.034,0,0,0,.024.021.826.826,0,0,0,.84-.454,1.359,1.359,0,0,0,.382.622.037.037,0,0,0,.02.007.038.038,0,0,0,.021-.007,1.353,1.353,0,0,0,.382-.622.826.826,0,0,0,.84.454.033.033,0,0,0,.024-.021.04.04,0,0,0,0-.032,1.386,1.386,0,0,1-.15-.5.741.741,0,0,0,.853.269l0,0,.372.646h-4.689Zm-4.7,2.406.033-.059a3.5,3.5,0,0,0,.848.708l-.275.475a1.4,1.4,0,0,1-.942.557,2.875,2.875,0,0,1,.335-1.682m-.569.388a1.832,1.832,0,0,1-.436.133,2.854,2.854,0,0,1,.335-1.682h0l.033-.057a3.494,3.494,0,0,0,.62,1.1l-.046.081a1.076,1.076,0,0,1-.506.424m1.238.773.275-.476a3.461,3.461,0,0,0,1.036.384l-.7,1.217a1.4,1.4,0,0,1-.943.557,2.881,2.881,0,0,1,.335-1.682m.67,1.161.716-1.24c.084.014.17.026.257.035v1.695l-.365.636a1.4,1.4,0,0,1-.943.557,2.865,2.865,0,0,1,.335-1.682m.67,1.161.3-.527V263a.271.271,0,0,0,0,.028,1.757,1.757,0,0,1-.641.245,2.876,2.876,0,0,1,.335-1.682m-1.986-7.989h0a2.517,2.517,0,0,1,.2-.227,1.49,1.49,0,0,1,1.054-.524.959.959,0,1,1-.279,1.876.035.035,0,0,0-.041.016,1.969,1.969,0,0,0,1.349,2.964v.674a2.637,2.637,0,0,1-1.861-4.07.051.051,0,0,0-.014-.07.05.05,0,0,0-.069.015,2.721,2.721,0,0,0-.456,1.51,2.752,2.752,0,0,0,2.4,2.717v.668a3.4,3.4,0,0,1-2.289-5.549m-1.363,2.182h0l.67-1.16c.038-.065.076-.128.112-.19a3.465,3.465,0,0,0-.11,2.363l-.065.113a1.4,1.4,0,0,1-.942.557,2.875,2.875,0,0,1,.331-1.674Zm-3.12,5.409,2.82-4.888a2.986,2.986,0,0,0-.1,1.209.036.036,0,0,0,.036.03h0a1.75,1.75,0,0,0,.79-.323l-1.632,2.828c-.875,1.516-1.738,1.226-1.916,1.143m.192,1.99,1.787-3.1,1.51-2.619a3.027,3.027,0,0,0-.1,1.21.037.037,0,0,0,.036.03h0a1.733,1.733,0,0,0,.79-.322l-1.83,3.171c-1.109,1.923-2.014,1.7-2.2,1.628m.439,1.561,3.529-6.117a3.027,3.027,0,0,0-.1,1.21.036.036,0,0,0,.036.03h0a1.737,1.737,0,0,0,.79-.322L1524.155,263c-1.169,2.026-2.079,1.813-2.262,1.744m.572,1.332,3.627-6.288a2.986,2.986,0,0,0-.1,1.21.034.034,0,0,0,.035.03h0a1.733,1.733,0,0,0,.789-.322l-1.948,3.376c-1.3,2.246-2.222,2.06-2.406,1.994m.675,1.152,3.621-6.279a3.041,3.041,0,0,0-.1,1.21.038.038,0,0,0,.036.031h0a1.741,1.741,0,0,0,.79-.322l-1.944,3.369c-1.3,2.245-2.222,2.058-2.406,1.992m3.02-.736c-.682,1.184-1.273,1.591-1.648,1.723a.88.88,0,0,1-.614.02l1.709-2.963v0l1.823-3.16a2.987,2.987,0,0,0-.1,1.21.036.036,0,0,0,.036.031h0a1.8,1.8,0,0,0,.671-.238c0,.033.007.066.012.1Zm1.874,4.894A1.683,1.683,0,0,1,1526.38,270a1.079,1.079,0,0,1,.538-.934l.892-.516a.447.447,0,0,1,.448,0l.893.516a1.08,1.08,0,0,1,.538.933,1.684,1.684,0,0,1-1.656,1.393m.379-3.5a.051.051,0,0,0,.044.076h.219a.87.87,0,0,1,.866.871,1.138,1.138,0,0,0-.991-.58.027.027,0,0,0-.027.028.027.027,0,0,0,.014.024l.788.456.109.063a.871.871,0,0,1,.314,1.187,1.14,1.14,0,0,0-.568-1l-.893-.515a.5.5,0,0,0-.506,0l-.892.515a1.123,1.123,0,0,0-.423.43,1.173,1.173,0,0,0-.145.569.871.871,0,0,1,.315-1.187l.109-.063.787-.456a.028.028,0,0,0-.014-.052,1.127,1.127,0,0,0-.582.16,1.173,1.173,0,0,0-.409.42.87.87,0,0,1,.866-.871h.316a.178.178,0,0,0,.153-.089l1.375-2.382a.278.278,0,1,1,.419.242Zm.225-2.522.564-.978c.249.112.492.224.724.336l-.189.326a.825.825,0,0,1-1.1.316m1.426.824a.824.824,0,0,1-.277-1.111l.19-.329c.248.119.486.239.71.359Zm.753,6.026h-.01a.737.737,0,0,1-.544-.2c.72-.73.972-1.644,1.307-6.394.173.111.332.221.48.33l-.3,5.7a1.07,1.07,0,0,1-.931.566m1.572.361a1.7,1.7,0,0,1-.583-.915l.3-5.67c.1.077.2.154.282.231.088-.077.183-.155.284-.233l.3,5.67a1.7,1.7,0,0,1-.582.917m1.326-2.269a3.047,3.047,0,0,0,.8,1.705.736.736,0,0,1-.545.2,1.07,1.07,0,0,1-.941-.566l-.3-5.7c.146-.11.307-.22.48-.33a38.169,38.169,0,0,0,.508,4.69m1.357-4.6a.816.816,0,0,1-.359.485l-.625-1.082c.225-.119.464-.24.71-.359l.191.33a.819.819,0,0,1,.082.626m1.844,2.171a.176.176,0,0,0,.152.089h.317a.87.87,0,0,1,.865.871,1.135,1.135,0,0,0-.991-.58.028.028,0,0,0-.014.052l.788.456.11.063a.872.872,0,0,1,.315,1.187,1.141,1.141,0,0,0-.569-1L1537,268.5a.5.5,0,0,0-.253-.068.5.5,0,0,0-.253.068l-.893.515a1.116,1.116,0,0,0-.423.43,1.2,1.2,0,0,0-.145.569.87.87,0,0,1,.314-1.187l.109-.063.788-.456a.028.028,0,0,0-.014-.052,1.122,1.122,0,0,0-.581.16,1.189,1.189,0,0,0-.41.42.87.87,0,0,1,.865-.871h.219a.051.051,0,0,0,.044-.076l-1.242-2.153c0-.005,0-.01.005-.016a.272.272,0,1,1,.412-.226Zm-.777-2.51a.824.824,0,0,1-1.1-.316l-.189-.327q.349-.168.725-.335Zm.429-2.36a1.159,1.159,0,0,1-.68,1.054,15.026,15.026,0,0,0-3.5,1.934,15.061,15.061,0,0,0-3.5-1.935,1.158,1.158,0,0,1-.68-1.053V260.44h.712a4.528,4.528,0,0,1,.967.541l.009.005a.025.025,0,0,0,.016,0l.007,0a.025.025,0,0,0,.019-.014,1.865,1.865,0,0,1,.407-.535h.605l-.013.017a5.094,5.094,0,0,0-.331.443.039.039,0,0,0,0,.033.038.038,0,0,0,.025.021,1.609,1.609,0,0,1,1.147.915v1.67c-.031.027-.064.054-.1.083-.22.181-.494.406-.494.708,0,.185.162.458.607.465a.869.869,0,0,0,.6.243h0a.909.909,0,0,0,.338-.068.718.718,0,0,0,.261-.174c.445-.007.607-.281.607-.465,0-.3-.274-.527-.495-.709-.034-.028-.068-.055-.1-.082v-1.67a1.609,1.609,0,0,1,1.146-.915.035.035,0,0,0,.022-.054c-.1-.155-.212-.3-.337-.46h.6a1.857,1.857,0,0,1,.406.535.026.026,0,0,0,.018.014l.008,0a.032.032,0,0,0,.017,0l.008-.006a4.561,4.561,0,0,1,.967-.54h.712Zm-7.576-2.6a3.006,3.006,0,0,0,.691-.506,2.488,2.488,0,0,0,.6.514,1.852,1.852,0,0,0-.385.5,4.542,4.542,0,0,0-.908-.512m4.742.019c.131.164.249.314.352.471a1.656,1.656,0,0,0-1.151.957.031.031,0,0,0,0,.009v1.692a.039.039,0,0,0,.013.027c.034.03.073.062.112.094.219.181.468.385.468.653,0,.159-.147.393-.551.393a.039.039,0,0,0-.028.013.791.791,0,0,1-1.117,0,.038.038,0,0,0-.028-.013c-.4,0-.551-.235-.551-.393,0-.267.249-.471.468-.653.04-.032.078-.064.113-.094a.038.038,0,0,0,.013-.027v-1.692a.025.025,0,0,0,0-.009,1.658,1.658,0,0,0-1.151-.957c.091-.136.2-.268.3-.4l.061-.075a.032.032,0,0,0,.006-.031.037.037,0,0,0-.02-.025,2.365,2.365,0,0,1-1.393-1.375,1.622,1.622,0,0,1,.938-1.99,1.538,1.538,0,0,0-.229,1.711,1.636,1.636,0,0,0,1.119.765,1.335,1.335,0,0,1,.545.108.869.869,0,0,0,.745,0,1.316,1.316,0,0,1,.543-.108,1.632,1.632,0,0,0,1.118-.765,1.537,1.537,0,0,0-.229-1.711,1.622,1.622,0,0,1,.939,1.99,2.357,2.357,0,0,1-1.386,1.375.036.036,0,0,0-.02.025.037.037,0,0,0,.007.031m.755-.01a2.493,2.493,0,0,0,.6-.514,3.014,3.014,0,0,0,.691.506,4.525,4.525,0,0,0-.908.512,1.88,1.88,0,0,0-.386-.5m2.078-.034h-.71a3.036,3.036,0,0,1-.748-.543.026.026,0,0,0-.021-.007.027.027,0,0,0-.02.01,2.481,2.481,0,0,1-.633.54h-.541a2.37,2.37,0,0,0,1.308-1.364,1.7,1.7,0,0,0-1.106-2.129.036.036,0,0,0-.042.014.037.037,0,0,0,0,.044,1.524,1.524,0,0,1,.305,1.735,1.547,1.547,0,0,1-1.055.728,1.4,1.4,0,0,0-.569.113.867.867,0,0,1-.345.08.882.882,0,0,1-.348-.08,1.4,1.4,0,0,0-.57-.113,1.546,1.546,0,0,1-1.056-.728,1.523,1.523,0,0,1,.306-1.735.037.037,0,0,0,0-.044.035.035,0,0,0-.041-.014,1.7,1.7,0,0,0-1.107,2.129,2.376,2.376,0,0,0,1.316,1.364h-.553a2.473,2.473,0,0,1-.634-.54.029.029,0,0,0-.02-.01.028.028,0,0,0-.021.007,3.04,3.04,0,0,1-.747.543h-.71v-3.859h8.361Zm4.312,7.856a.88.88,0,0,1-.614-.02c-.375-.132-.965-.539-1.648-1.723l-1.894-3.282c.005-.033.01-.065.013-.1a1.8,1.8,0,0,0,.672.239h0a.037.037,0,0,0,.036-.031,2.978,2.978,0,0,0-.1-1.21l1.823,3.16v0Zm.758-1.007c-.183.068-1.106.261-2.4-1.992l-1.944-3.369a1.739,1.739,0,0,0,.79.322h0a.038.038,0,0,0,.036-.031,3.008,3.008,0,0,0-.1-1.21l1.828,3.17v0Zm.675-1.152c-.184.068-1.105.26-2.406-1.99l-1.949-3.38a1.732,1.732,0,0,0,.788.322h0a.035.035,0,0,0,.036-.03,2.973,2.973,0,0,0-.1-1.21l1.874,3.248a0,0,0,0,0,0,0Zm.571-1.332c-.182.069-1.093.281-2.261-1.741l-1.995-3.457a1.736,1.736,0,0,0,.79.322h0a.035.035,0,0,0,.036-.03,3.01,3.01,0,0,0-.1-1.21Zm-.159-1.564c-.369-.118-.945-.495-1.6-1.624l-1.83-3.171a1.733,1.733,0,0,0,.79.322h0a.038.038,0,0,0,.036-.03,3.026,3.026,0,0,0-.1-1.21l3.3,5.716a.877.877,0,0,1-.6,0" transform="translate(-1514.879 -243.443)" fill="#191717"/>
          <path id="Path_8754" data-name="Path 8754" d="M1589.656,335.987a.029.029,0,0,0,.016-.005.892.892,0,0,0,.213-.2.027.027,0,0,0,0-.033.94.94,0,0,0-.214-.22.027.027,0,0,0-.032,0,.882.882,0,0,0-.214.2.028.028,0,0,0,0,.033.943.943,0,0,0,.214.22.026.026,0,0,0,.016.006m-.174-.241a.8.8,0,0,1,.173-.164.851.851,0,0,1,.174.18.8.8,0,0,1-.173.164.843.843,0,0,1-.174-.18" transform="translate(-1573.42 -317.511)" fill="#191717"/>
          <path id="Path_8755" data-name="Path 8755" d="M1593.83,307.175l.3.107a.027.027,0,0,1,.016.016.027.027,0,0,1,0,.022l-.139.289a.081.081,0,0,0,.016.094.082.082,0,0,0,.095.017l.292-.137a.028.028,0,0,1,.039.016l.108.3a.083.083,0,0,0,.156,0l.108-.3a.027.027,0,0,1,.016-.017.029.029,0,0,1,.023,0l.292.137a.083.083,0,0,0,.095-.017.082.082,0,0,0,.016-.094l-.138-.289a.028.028,0,0,1,0-.022.028.028,0,0,1,.017-.016l.3-.107a.082.082,0,0,0,0-.156l-.3-.107a.029.029,0,0,1-.017-.016.028.028,0,0,1,0-.022l.138-.289a.082.082,0,0,0-.016-.094.083.083,0,0,0-.095-.017l-.292.137a.028.028,0,0,1-.023,0,.028.028,0,0,1-.016-.016l-.108-.3a.083.083,0,0,0-.156,0l-.108.3a.028.028,0,0,1-.039.016l-.292-.137a.083.083,0,0,0-.095.017.081.081,0,0,0-.016.094l.139.289a.026.026,0,0,1,0,.022.028.028,0,0,1-.016.016l-.3.107a.082.082,0,0,0-.055.078.082.082,0,0,0,.055.078m.018-.1.3-.107a.082.082,0,0,0,.047-.114l-.138-.289a.027.027,0,0,1,.005-.032.028.028,0,0,1,.033-.006l.292.137a.083.083,0,0,0,.068,0,.085.085,0,0,0,.046-.049l.108-.3a.028.028,0,0,1,.053,0l.108.3a.083.083,0,0,0,.114.047l.292-.137a.028.028,0,0,1,.032.006.027.027,0,0,1,.005.031l-.138.289a.082.082,0,0,0,.047.114l.3.107a.028.028,0,0,1,0,.053l-.3.107a.082.082,0,0,0-.047.114l.138.289a.026.026,0,0,1-.005.031.028.028,0,0,1-.032.006l-.292-.138a.084.084,0,0,0-.114.047l-.108.3a.029.029,0,0,1-.053,0l-.108-.3a.085.085,0,0,0-.046-.049.084.084,0,0,0-.068,0l-.292.138a.028.028,0,0,1-.033-.006.027.027,0,0,1-.005-.031l.138-.289a.082.082,0,0,0-.047-.114l-.3-.107a.028.028,0,0,1,0-.053" transform="translate(-1577.132 -292.394)" fill="#191717"/>
          <path id="Path_8756" data-name="Path 8756" d="M1607.566,335.526a.028.028,0,0,0-.033,0,.947.947,0,0,0-.214.22.027.027,0,0,0,0,.033.9.9,0,0,0,.213.2.028.028,0,0,0,.016.005.027.027,0,0,0,.017-.006.944.944,0,0,0,.214-.22.027.027,0,0,0,0-.033.891.891,0,0,0-.213-.2m-.017.4a.808.808,0,0,1-.173-.164.841.841,0,0,1,.174-.18.818.818,0,0,1,.173.164.844.844,0,0,1-.175.18" transform="translate(-1588.763 -317.512)" fill="#191717"/>
          <path id="Path_8757" data-name="Path 8757" d="M1590.813,342.464a.041.041,0,0,0,.041-.041l0-.8a.2.2,0,0,0-.2-.2h-.171a.041.041,0,0,0-.041.041.192.192,0,0,0,.171.2c0,.152.013.655.129.772a.1.1,0,0,0,.071.031m-.33-1h.171a.16.16,0,0,1,.161.16l0,.8c-.164,0-.158-.8-.158-.8s-.172,0-.172-.159" transform="translate(-1574.297 -322.559)" fill="#191717"/>
          <path id="Path_8758" data-name="Path 8758" d="M1607.069,341.423h-.171a.2.2,0,0,0-.144.059.2.2,0,0,0-.059.142l0,.8a.041.041,0,0,0,.041.041.1.1,0,0,0,.071-.031c.116-.117.128-.619.128-.772a.192.192,0,0,0,.172-.2.041.041,0,0,0-.041-.041m-.172.2s.006.8-.158.8l0-.8a.16.16,0,0,1,.161-.16h.171c0,.159-.172.159-.172.159" transform="translate(-1588.234 -322.559)" fill="#191717"/>
          <path id="Path_8759" data-name="Path 8759" d="M1614.7,338.864a.832.832,0,0,0-.409,1.562.028.028,0,0,0,.013,0,.028.028,0,0,0,.016-.005.027.027,0,0,0,.011-.027.9.9,0,0,1-.014-.159.926.926,0,0,1,.929-.92.906.906,0,0,1,.16.014.027.027,0,0,0,.027-.011.027.027,0,0,0,0-.029.842.842,0,0,0-.734-.428m.546.4a.981.981,0,0,0-.984.975.965.965,0,0,0,.006.11.778.778,0,0,1,.432-1.43.788.788,0,0,1,.656.351.982.982,0,0,0-.111-.006" transform="translate(-1594.349 -320.355)" fill="#191717"/>
          <path id="Path_8760" data-name="Path 8760" d="M1579.8,342.567a.24.24,0,1,0,.242.24.241.241,0,0,0-.242-.24m0,.425a.185.185,0,1,1,.187-.185.186.186,0,0,1-.187.185" transform="translate(-1564.968 -323.551)" fill="#191717"/>
          <path id="Path_8761" data-name="Path 8761" d="M1579.8,346.427a.24.24,0,1,0,.242.24.241.241,0,0,0-.242-.24m0,.425a.185.185,0,1,1,.187-.185.186.186,0,0,1-.187.185" transform="translate(-1564.968 -326.86)" fill="#191717"/>
          <path id="Path_8762" data-name="Path 8762" d="M1583.576,343.771a.243.243,0,0,0-.3.154.236.236,0,0,0,.014.182.24.24,0,0,0,.141.12.246.246,0,0,0,.074.012.243.243,0,0,0,.23-.166.24.24,0,0,0-.155-.3m.1.285a.188.188,0,0,1-.236.119.186.186,0,0,1-.109-.093.183.183,0,0,1-.011-.141.187.187,0,0,1,.178-.128.194.194,0,0,1,.058.009.186.186,0,0,1,.12.233" transform="translate(-1568.137 -324.573)" fill="#191717"/>
          <path id="Path_8763" data-name="Path 8763" d="M1581.952,339.878a.243.243,0,0,0,.338-.053.239.239,0,0,0-.054-.335.243.243,0,0,0-.337.053.235.235,0,0,0-.043.178.24.24,0,0,0,.1.157m-.01-.3h0a.189.189,0,0,1,.262-.041.184.184,0,0,1,.041.259.188.188,0,0,1-.261.041.184.184,0,0,1-.042-.258" transform="translate(-1566.931 -320.875)" fill="#191717"/>
          <path id="Path_8764" data-name="Path 8764" d="M1577.322,339.825a.244.244,0,0,0,.338.053.238.238,0,0,0,.053-.335.243.243,0,0,0-.337-.053.239.239,0,0,0-.054.335Zm.011-.17a.184.184,0,0,1,.075-.121.189.189,0,0,1,.261.041.184.184,0,0,1-.041.258.189.189,0,0,1-.261-.041.181.181,0,0,1-.033-.137" transform="translate(-1563.007 -320.875)" fill="#191717"/>
          <path id="Path_8765" data-name="Path 8765" d="M1576.026,343.771a.24.24,0,0,0-.155.3.242.242,0,0,0,.23.166.247.247,0,0,0,.074-.012.24.24,0,0,0,.141-.12.237.237,0,0,0,.014-.182.242.242,0,0,0-.3-.154m.242.312a.185.185,0,0,1-.109.093.188.188,0,0,1-.236-.119.183.183,0,0,1,.011-.141.185.185,0,0,1,.109-.093.191.191,0,0,1,.058-.009.188.188,0,0,1,.178.128.183.183,0,0,1-.011.141" transform="translate(-1561.792 -324.573)" fill="#191717"/>
        </g>
      </g>
    </g>
  </g>
</svg>
