<svg xmlns="http://www.w3.org/2000/svg" width="20" height="20" viewBox="0 0 20 20">
  <g id="Group_6122" data-name="Group 6122" transform="translate(3760 -752)">
    <rect id="Rectangle" width="20" height="20" transform="translate(-3760 752)" fill="rgba(0,0,0,0)"/>
    <g id="Group_6121" data-name="Group 6121" transform="translate(39 -10.5)">
      <path id="Subtraction_5" data-name="Subtraction 5" d="M1.664,1.664A1.666,1.666,0,0,1,0,0H1.5A5.021,5.021,0,0,0,2.643,1.346,1.652,1.652,0,0,1,1.664,1.664Z" transform="translate(-3791.036 779.836)" fill="#fff" stroke="rgba(0,0,0,0)" stroke-width="1"/>
      <path id="Subtraction_4" data-name="Subtraction 4" d="M6.976,15.491H0v-.838l1.672-1.675V7.955a5.854,5.854,0,0,1,4.6-5.719v-.98a1.255,1.255,0,1,1,2.509,0v.98a5.854,5.854,0,0,1,4.6,5.719V9.078a5,5,0,0,0-1.672-.286V7.955a4.182,4.182,0,1,0-8.363,0v5.861H6.69a5.018,5.018,0,0,0,.285,1.674Z" transform="translate(-3797 763.5)" fill="#fff" stroke="rgba(0,0,0,0)" stroke-width="1"/>
      <path id="Subtraction_2" data-name="Subtraction 2" d="M4.912,8.363H3.24a.208.208,0,0,1-.209-.176l-.159-1.1a2.854,2.854,0,0,1-.711-.41l-1.037.418a.244.244,0,0,1-.077.013A.2.2,0,0,1,.865,7L.029,5.553a.216.216,0,0,1,.05-.267l.886-.694a3.353,3.353,0,0,1,0-.82L.079,3.078a.206.206,0,0,1-.05-.268L.865,1.364a.222.222,0,0,1,.188-.1.211.211,0,0,1,.072.013l1.037.418a3.389,3.389,0,0,1,.71-.409l.159-1.1A.216.216,0,0,1,3.24,0H4.912a.2.2,0,0,1,.2.176l.159,1.1a2.842,2.842,0,0,1,.711.409L7.02,1.272A.243.243,0,0,1,7.1,1.259a.2.2,0,0,1,.182.1L8.116,2.81a.218.218,0,0,1-.051.268l-.886.694a2.19,2.19,0,0,1,.033.41,3.175,3.175,0,0,1-.033.409l.9.694a.217.217,0,0,1,.05.267L7.287,7a.221.221,0,0,1-.187.1.21.21,0,0,1-.072-.013L5.983,6.674a3.031,3.031,0,0,1-.7.41l-.159,1.1A.213.213,0,0,1,4.912,8.363ZM4.076,2.927A1.254,1.254,0,1,0,5.331,4.182,1.256,1.256,0,0,0,4.076,2.927Z" transform="translate(-3789.15 773.137)" fill="#fff" stroke="rgba(0,0,0,0)" stroke-width="1"/>
    </g>
  </g>
</svg>
