<?xml version="1.0" standalone="no"?>
<!DOCTYPE svg PUBLIC "-//W3C//DTD SVG 20010904//EN"
 "http://www.w3.org/TR/2001/REC-SVG-20010904/DTD/svg10.dtd">
<svg version="1.0" xmlns="http://www.w3.org/2000/svg"
 width="300.000000pt" height="300.000000pt" viewBox="0 0 300.000000 300.000000"
 preserveAspectRatio="xMidYMid meet">
<metadata>
Created by potrace 1.14, written by Peter Selinger 2001-2017
</metadata>
<g transform="translate(0.000000,300.000000) scale(0.100000,-0.100000)"
fill="#000000" stroke="none">
<path d="M1397 2994 c-1 -1 -34 -4 -74 -8 -40 -3 -94 -11 -120 -17 -26 -6 -57
-12 -67 -15 -65 -13 -233 -77 -321 -122 -111 -57 -201 -117 -285 -189 -266
-231 -435 -519 -507 -863 -18 -91 -25 -378 -11 -495 56 -463 385 -917 823
-1133 91 -45 202 -87 290 -108 143 -36 221 -43 410 -39 165 3 211 8 338 41 9
2 26 6 36 8 43 10 157 53 228 86 l75 35 -89 120 c-329 443 -413 559 -518 715
-230 340 -467 690 -481 708 -3 4 -5 -170 -6 -571 -1 -230 -4 -312 -14 -325 -9
-12 -28 -17 -66 -19 -68 -2 -83 2 -95 30 -7 17 -10 957 -4 1169 1 43 31 53
139 49 35 -1 5 41 627 -901 89 -135 233 -353 321 -485 87 -132 161 -244 164
-250 17 -33 116 -175 123 -175 16 0 155 110 228 182 248 241 411 567 446 893
8 74 8 279 0 360 -48 488 -387 959 -847 1177 -83 40 -231 94 -276 101 -16 3
-36 7 -44 10 -8 3 -35 8 -60 11 -25 4 -59 9 -75 12 -27 5 -283 12 -288 8z
m632 -919 c14 -13 16 -87 16 -545 0 -292 -1 -530 -2 -530 -2 0 -44 62 -94 137
l-92 136 1 388 c1 294 4 392 14 408 19 31 128 35 157 6z"/>
</g>
</svg>
