<svg xmlns="http://www.w3.org/2000/svg" width="63.341" height="768" viewBox="0 0 63.341 768">
  <g id="Group_5986" data-name="Group 5986" transform="translate(-676.363 -648.984)">
    <path id="Path_8337" data-name="Path 8337" d="M736.4,1332.433V1378.4a3.178,3.178,0,0,1-3.183,3.183h-46.32a3.178,3.178,0,0,1-3.183-3.183V1230.985a3.183,3.183,0,1,1,6.367,0v21.786l-5.306,5.306a2.653,2.653,0,0,0,3.756,3.746l1.549-1.548v18.781l-5.232,5.231a2.653,2.653,0,0,0,3.756,3.746l1.475-1.474v18.7l-5.062,5.062a2.653,2.653,0,1,0,3.757,3.746l1.305-1.305v20.289l-5.072,5.125a2.656,2.656,0,0,0,3.778,3.735l1.295-1.305v34.615h39.953v-35.1l-20.141,20.151a3.185,3.185,0,0,1-4.51-4.5l25.585-25.585a3.183,3.183,0,0,1,5.433,2.251Z" transform="translate(0.449 35.399)" fill="#1b6d05"/>
    <path id="Path_8338" data-name="Path 8338" d="M690.049,1326.979v7.555l-1.295,1.305a2.656,2.656,0,0,1-3.778-3.735Z" transform="translate(0.48 41.465)" fill="#1b6d05"/>
    <path id="Path_8339" data-name="Path 8339" d="M736.635,1289.664l-17.276,17.466h-5.306a2.653,2.653,0,1,0,0,5.306h.053l-4.032,4.075h-5.306a2.653,2.653,0,1,0,0,5.306h.053l-3.81,3.852h-5.306a2.653,2.653,0,1,0,0,5.306h.064l-6.059,6.123v-7.556l43.147-43.613a2.656,2.656,0,1,1,3.778,3.735Z" transform="translate(0.816 38.906)" fill="#1b6d05"/>
    <path id="Path_8340" data-name="Path 8340" d="M718.11,1305.862l-5.253,5.306H712.8a2.653,2.653,0,1,1,0-5.306Z" transform="translate(2.066 40.173)" fill="#45a949"/>
    <path id="Path_8341" data-name="Path 8341" d="M733.51,1308.515a2.654,2.654,0,0,1-2.653,2.653H712.7l5.253-5.306h12.9A2.654,2.654,0,0,1,733.51,1308.515Z" transform="translate(2.222 40.173)" fill="#102600"/>
    <path id="Path_8342" data-name="Path 8342" d="M709.36,1314.7l-5.253,5.306h-.053a2.653,2.653,0,1,1,0-5.306Z" transform="translate(1.531 40.714)" fill="#45a949"/>
    <path id="Path_8343" data-name="Path 8343" d="M724.941,1317.355a2.654,2.654,0,0,1-2.653,2.653H703.951l5.253-5.306h13.084A2.654,2.654,0,0,1,724.941,1317.355Z" transform="translate(1.687 40.714)" fill="#102600"/>
    <path id="Path_8344" data-name="Path 8344" d="M700.82,1323.332l-5.242,5.306h-.064a2.653,2.653,0,1,1,0-5.306Z" transform="translate(1.009 41.242)" fill="#45a949"/>
    <path id="Path_8345" data-name="Path 8345" d="M716.75,1325.985a2.654,2.654,0,0,1-2.653,2.653H695.421l5.242-5.306H714.1A2.654,2.654,0,0,1,716.75,1325.985Z" transform="translate(1.165 41.242)" fill="#102600"/>
    <path id="Path_8346" data-name="Path 8346" d="M717.344,1282.039l-27.633,27.633v-7.5l23.887-23.887A5.8,5.8,0,0,0,717.344,1282.039Z" transform="translate(0.816 38.487)" fill="#102600"/>
    <path id="Path_8347" data-name="Path 8347" d="M690.047,1300.792v7.5l-1.305,1.305a2.652,2.652,0,0,1-3.757-3.746Z" transform="translate(0.48 39.863)" fill="#45a949"/>
    <path id="Path_8348" data-name="Path 8348" d="M690.063,1251.329v7.5l-1.549,1.549a2.652,2.652,0,0,1-3.756-3.746Z" transform="translate(0.466 36.838)" fill="#1b6d05"/>
    <path id="Path_8349" data-name="Path 8349" d="M706.67,1216.412v26.667a2.635,2.635,0,0,1-.775,1.868l-16.183,16.183v-7.5l11.651-11.651v-25.563a2.652,2.652,0,0,1,2.345-2.632,2.24,2.24,0,0,1,.615,0A2.652,2.652,0,0,1,706.67,1216.412Z" transform="translate(0.816 34.541)" fill="#1b6d05"/>
    <path id="Path_8350" data-name="Path 8350" d="M732.825,1259.3a2.655,2.655,0,0,1-2.653,2.653H711.241l5.306-5.306h13.625A2.654,2.654,0,0,1,732.825,1259.3Z" transform="translate(2.133 37.163)" fill="#102600"/>
    <path id="Path_8351" data-name="Path 8351" d="M723.527,1276.966a5.78,5.78,0,0,1-5.783,5.772,6,6,0,0,1-1.762-.265l1.125-1.124a2.653,2.653,0,0,0-3.756-3.747l-1.114,1.114a5.968,5.968,0,0,1-.265-1.75,5.778,5.778,0,1,1,11.556,0Z" transform="translate(2.178 38.052)" fill="#ab2c95"/>
    <path id="Path_8352" data-name="Path 8352" d="M717.092,1281.024l-1.125,1.124a5.8,5.8,0,0,1-3.746-3.757l1.114-1.114a2.653,2.653,0,0,1,3.756,3.747Z" transform="translate(2.193 38.378)" fill="#6d2067"/>
    <path id="Path_8353" data-name="Path 8353" d="M735.5,1135.185v110.307a2.643,2.643,0,0,1-.775,1.879l-16.862,16.862h-5.391a2.653,2.653,0,1,0,0,5.306h.085l-22.847,22.847v-7.5l40.483-40.483v-61.123a2.637,2.637,0,0,0,.86.148,2.652,2.652,0,0,0,1.878-4.531l-2.738-2.737v-19.515a2.652,2.652,0,0,0,3.459-4l-3.459-3.459v-14a2.653,2.653,0,1,1,5.306,0Z" transform="translate(0.816 29.573)" fill="#1b6d05"/>
    <path id="Path_8354" data-name="Path 8354" d="M690.06,1276.1v7.5l-1.475,1.475a2.652,2.652,0,0,1-3.756-3.746Z" transform="translate(0.47 38.353)" fill="#102600"/>
    <path id="Path_8355" data-name="Path 8355" d="M716.7,1256.643l-5.306,5.306h-.085a2.653,2.653,0,1,1,0-5.306Z" transform="translate(1.975 37.163)" fill="#45a949"/>
    <path id="Path_8356" data-name="Path 8356" d="M698.67,1150.7H681.776a2.653,2.653,0,1,1,0-5.306h11.588Z" transform="translate(0.169 30.36)" fill="#102600"/>
    <path id="Path_8357" data-name="Path 8357" d="M706.02,1158.035H688.776a2.653,2.653,0,1,1,0-5.306h11.938Z" transform="translate(0.597 30.808)" fill="#102600"/>
    <path id="Path_8358" data-name="Path 8358" d="M713.355,1165.365H696.026a2.653,2.653,0,1,1,0-5.306h12.023Z" transform="translate(1.04 31.256)" fill="#102600"/>
    <path id="Path_8359" data-name="Path 8359" d="M730.608,1180.979v7.12a2.762,2.762,0,0,1-1.019-.626l-15.6-15.6h.042a2.653,2.653,0,1,0,0-5.306h-5.348l-2.472-2.473h.042a2.653,2.653,0,1,0,0-5.306h-5.348l-2.472-2.472h.042a2.653,2.653,0,1,0,0-5.306h-5.348L684,1141.886a2.679,2.679,0,0,1-.775-1.868l-.244-83.736a2.653,2.653,0,1,1,5.306-.011l.032,12.171-3.109,3.109a3.178,3.178,0,0,0,2.25,5.433,3.119,3.119,0,0,0,.891-.127l.053,19.451-3.215,3.268a3.184,3.184,0,0,0,2.271,5.412,3.037,3.037,0,0,0,.976-.159l.1,34.074Z" transform="translate(0.405 24.747)" fill="#1b6d05"/>
    <path id="Path_8360" data-name="Path 8360" d="M700.544,1148.052a2.654,2.654,0,0,1-2.653,2.653h-.042l-5.306-5.306h5.348A2.654,2.654,0,0,1,700.544,1148.052Z" transform="translate(0.99 30.36)" fill="#45a949"/>
    <path id="Path_8361" data-name="Path 8361" d="M707.874,1155.382a2.654,2.654,0,0,1-2.653,2.653h-.042l-5.306-5.306h5.348A2.654,2.654,0,0,1,707.874,1155.382Z" transform="translate(1.438 30.808)" fill="#45a949"/>
    <path id="Path_8362" data-name="Path 8362" d="M715.2,1162.712a2.654,2.654,0,0,1-2.653,2.653h-.042l-5.306-5.306h5.348A2.654,2.654,0,0,1,715.2,1162.712Z" transform="translate(1.886 31.256)" fill="#45a949"/>
    <path id="Path_8363" data-name="Path 8363" d="M730.6,1180.133a2.634,2.634,0,0,1-2.738.626v-7.12l2.738,2.738A2.671,2.671,0,0,1,730.6,1180.133Z" transform="translate(3.15 32.087)" fill="#102600"/>
    <path id="Path_8364" data-name="Path 8364" d="M731.322,1155.424a2.665,2.665,0,0,1-3.459.255v-7.46l3.459,3.459A2.658,2.658,0,0,1,731.322,1155.424Z" transform="translate(3.15 30.532)" fill="#822975"/>
    <path id="Path_8365" data-name="Path 8365" d="M729.487,1151.3v7.46a2.228,2.228,0,0,1-.3-.255l-27.1-27.1a2.64,2.64,0,0,1-.775-1.878v-21.446a2.64,2.64,0,0,1,.775-1.878l8.426-8.426a10.371,10.371,0,0,0,.934,1.369,2.692,2.692,0,0,0-.477.382,2.908,2.908,0,0,0,0,4.1l.6.6-4.956,4.945v19.26l5.1,5.1-1.348,1.348a2.653,2.653,0,0,0,3.756,3.746l1.337-1.348Z" transform="translate(1.526 27.447)" fill="#b5339c"/>
    <path id="Path_8366" data-name="Path 8366" d="M714.991,1135.225l-1.337,1.348a2.653,2.653,0,0,1-3.756-3.746l1.348-1.348Z" transform="translate(2.004 29.508)" fill="#b8000f"/>
    <path id="Path_8367" data-name="Path 8367" d="M724.7,1125.966l-9.826,9.826-3.746-3.746,9.837-9.837v1.167a2.6,2.6,0,0,0,2.6,2.589Z" transform="translate(2.126 28.942)" fill="#eb0311"/>
    <path id="Path_8368" data-name="Path 8368" d="M735.187,984.883v75.7a3.174,3.174,0,0,1-.913,2.229L722.8,1074.476h-6.5a3.183,3.183,0,1,0,0,6.367h.244l-27.123,27.59a3.072,3.072,0,0,1-1.295.8l-.032-8.521,40.727-41.428v-24.916a3.183,3.183,0,0,0,3.894-4.977l-3.894-3.895v-18.124a3.027,3.027,0,0,0,1.061.191,3.183,3.183,0,0,0,2.281-5.412l-3.343-3.427V984.883a3.183,3.183,0,0,1,6.367,0Z" transform="translate(0.717 20.348)" fill="#1b6d05"/>
    <path id="Path_8369" data-name="Path 8369" d="M688.363,1102.37a3.037,3.037,0,0,1-.976.159,3.184,3.184,0,0,1-2.271-5.412l3.215-3.268Z" transform="translate(0.479 27.207)" fill="#102600"/>
    <path id="Path_8370" data-name="Path 8370" d="M721.361,1069.129,715.1,1075.5h-.244a3.183,3.183,0,0,1,0-6.367Z" transform="translate(2.159 25.695)" fill="#45a949"/>
    <path id="Path_8371" data-name="Path 8371" d="M737.018,1072.313a3.186,3.186,0,0,1-3.183,3.183H714.9l6.261-6.367h12.67A3.179,3.179,0,0,1,737.018,1072.313Z" transform="translate(2.357 25.695)" fill="#102600"/>
    <path id="Path_8372" data-name="Path 8372" d="M715.172,1024.3v25.574a3.223,3.223,0,0,1-.934,2.26l-6.346,6.346a3.2,3.2,0,0,0,0-4.51l-2.25-2.25,3.162-3.162v-8.585l.913.912a3.185,3.185,0,0,0,4.51-4.5l-5.423-5.422V1024.3a3.183,3.183,0,1,1,6.367,0Z" transform="translate(1.791 22.759)" fill="#eb0311"/>
    <path id="Path_8373" data-name="Path 8373" d="M708.971,1056.459,689.4,1076.026a3.072,3.072,0,0,1-1.358.8l-.032-8.415,14.209-14.2,2.25,2.25a3.177,3.177,0,0,0,4.5,0Z" transform="translate(0.712 24.783)" fill="#eb0311"/>
    <path id="Path_8374" data-name="Path 8374" d="M688.278,1076a3.119,3.119,0,0,1-.891.127,3.178,3.178,0,0,1-2.25-5.433l3.109-3.109Z" transform="translate(0.48 25.601)" fill="#102600"/>
    <path id="Path_8375" data-name="Path 8375" d="M714.046,1040.321a3.189,3.189,0,0,1-4.51,0l-.913-.912V1030.4l5.423,5.422A3.183,3.183,0,0,1,714.046,1040.321Z" transform="translate(1.973 23.327)" fill="#fff"/>
    <path id="Path_8376" data-name="Path 8376" d="M709.3,1030.816v9.009l-11.779-11.779h.382a4.146,4.146,0,0,0,4.149-4.138v-.329Z" transform="translate(1.294 22.91)" fill="#eb0311"/>
    <path id="Path_8377" data-name="Path 8377" d="M714.046,1040.321a3.189,3.189,0,0,1-4.51,0l-.913-.912V1030.4l5.423,5.422A3.183,3.183,0,0,1,714.046,1040.321Z" transform="translate(1.973 23.327)" fill="#b8000f"/>
    <path id="Path_8378" data-name="Path 8378" d="M708.152,1056.719a3.177,3.177,0,0,1-4.5,0l-2.25-2.25,4.5-4.51,2.25,2.25A3.2,3.2,0,0,1,708.152,1056.719Z" transform="translate(1.531 24.523)" fill="#102600"/>
    <path id="Path_8379" data-name="Path 8379" d="M706.253,1050.306l-4.5,4.51-6.091-6.091a6.687,6.687,0,0,0,4.574-4.436Z" transform="translate(1.18 24.176)" fill="#389908"/>
    <path id="Path_8380" data-name="Path 8380" d="M728.229,999.272v8.648a2.954,2.954,0,0,1-1.22-.775L698.665,978.07a3.182,3.182,0,0,1,4.552-4.446l5.879,6.027v6.484a3.184,3.184,0,0,0,6.367.042Z" transform="translate(1.308 19.796)" fill="#559992"/>
    <path id="Path_8381" data-name="Path 8381" d="M729.763,1005.677a3.183,3.183,0,0,1-2.228.9,3.027,3.027,0,0,1-1.061-.191v-8.648l3.343,3.427A3.2,3.2,0,0,1,729.763,1005.677Z" transform="translate(3.065 21.329)" fill="#366059"/>
    <path id="Path_8382" data-name="Path 8382" d="M714.81,985.775a3.184,3.184,0,0,1-6.367-.042v-6.484Z" transform="translate(1.962 20.198)" fill="#427770"/>
    <path id="Path_8383" data-name="Path 8383" d="M712.91,960.4a1.313,1.313,0,0,0,0,1.868l1.9,1.9v22.942l-6.367-6.526V964.418l1.91-1.91a1.326,1.326,0,0,0,0-1.878l-1.91-1.91v-1.072l2.175,2.175a1.332,1.332,0,0,0,1.868,0l2.324-2.324v1Z" transform="translate(1.962 18.868)" fill="#559992"/>
    <path id="Path_8384" data-name="Path 8384" d="M729.249,1030.353v8.871a2.9,2.9,0,0,1-.615-.478l-46.617-46.659a3.2,3.2,0,0,1-.934-2.25V905.413a3.183,3.183,0,0,1,6.367,0v12.745L683,922.943a3.178,3.178,0,0,0,2.324,5.348,3.14,3.14,0,0,0,2.122-.806v17.148l-4.457,4.457a3.183,3.183,0,0,0,2.25,5.433,3.15,3.15,0,0,0,2.207-.891v34.891Z" transform="translate(0.289 15.488)" fill="#1b6d05"/>
    <path id="Path_8385" data-name="Path 8385" d="M730.367,1031.363a3.183,3.183,0,0,1-3.894.478v-8.871l3.894,3.895A3.183,3.183,0,0,1,730.367,1031.363Z" transform="translate(3.065 22.872)" fill="#102600"/>
    <path id="Path_8386" data-name="Path 8386" d="M687.388,917.239v9.328a3.19,3.19,0,0,1-4.287-.042,3.185,3.185,0,0,1-.159-4.5Z" transform="translate(0.35 16.406)" fill="#abd8ab"/>
    <path id="Path_8387" data-name="Path 8387" d="M706.47,893.043v13.127a3.19,3.19,0,0,1-.86,2.165L687.3,928.039a1.911,1.911,0,0,1-.212.2v-9.328l13.02-14V893.043a3.183,3.183,0,0,1,6.367,0Z" transform="translate(0.656 14.731)" fill="#e0880d"/>
    <path id="Path_8388" data-name="Path 8388" d="M733.732,833.013V910.1a3.18,3.18,0,0,1-.934,2.25l-6.791,6.791h-6.622a3.183,3.183,0,0,0,0,6.367h.255l-1.645,1.645h-7.1a3.184,3.184,0,0,0,0,6.367h.732l-1.634,1.634h-6.622a3.183,3.183,0,0,0,0,6.367h.255l-16.5,16.5-.042.042v-9l40.282-40.282V881.8a3.185,3.185,0,0,0,4.181-4.786l-4.181-4.181V854.3l.541.541a3.177,3.177,0,0,0,4.5,0,3.164,3.164,0,0,0,0-4.5l-5.041-5.041V833.013a3.184,3.184,0,0,1,6.367,0Z" transform="translate(0.656 11.06)" fill="#0d5900"/>
    <path id="Path_8389" data-name="Path 8389" d="M687.394,942.189v9a3.178,3.178,0,0,1-4.457-.042,3.183,3.183,0,0,1,0-4.5Z" transform="translate(0.345 17.932)" fill="#102600"/>
    <path id="Path_8390" data-name="Path 8390" d="M724.328,913.989l-6.367,6.367h-.255a3.183,3.183,0,0,1,0-6.367Z" transform="translate(2.334 16.207)" fill="#45a949"/>
    <path id="Path_8391" data-name="Path 8391" d="M737.172,917.172a3.179,3.179,0,0,1-3.183,3.183H717.763l6.367-6.367h9.858A3.186,3.186,0,0,1,737.172,917.172Z" transform="translate(2.532 16.207)" fill="#102600"/>
    <path id="Path_8392" data-name="Path 8392" d="M716.806,921.539l-6.367,6.367h-.732a3.184,3.184,0,0,1,0-6.367Z" transform="translate(1.845 16.669)" fill="#45a949"/>
    <path id="Path_8393" data-name="Path 8393" d="M729.388,924.723a3.186,3.186,0,0,1-3.183,3.183H710.213l6.367-6.367H726.2A3.179,3.179,0,0,1,729.388,924.723Z" transform="translate(2.07 16.669)" fill="#102600"/>
    <path id="Path_8394" data-name="Path 8394" d="M709.238,929.079l-6.367,6.367h-.255a3.183,3.183,0,0,1,0-6.367Z" transform="translate(1.411 17.13)" fill="#45a949"/>
    <path id="Path_8395" data-name="Path 8395" d="M722.156,932.263a3.186,3.186,0,0,1-3.183,3.183h-16.3l6.367-6.367h9.932A3.186,3.186,0,0,1,722.156,932.263Z" transform="translate(1.609 17.13)" fill="#102600"/>
    <path id="Path_8396" data-name="Path 8396" d="M730.084,853.949a3.177,3.177,0,0,1-4.5,0l-.541-.541v-9l5.041,5.041A3.164,3.164,0,0,1,730.084,853.949Z" transform="translate(2.977 11.952)" fill="#102600"/>
    <path id="Path_8397" data-name="Path 8397" d="M726.193,845.518v9L707.167,835.48a3.137,3.137,0,0,1-.934-2.25V826.28c.191.032.371.074.563.106a15.491,15.491,0,0,0,2.557.233h.064a14.483,14.483,0,0,0,2.472-.212c.244-.042.478-.085.711-.138v5.645Z" transform="translate(1.827 10.842)" fill="#eb0017"/>
    <path id="Path_8398" data-name="Path 8398" d="M729.224,879.039a3.189,3.189,0,0,1-4.181.286v-8.967l4.181,4.181A3.183,3.183,0,0,1,729.224,879.039Z" transform="translate(2.977 13.539)" fill="#102600"/>
    <path id="Path_8399" data-name="Path 8399" d="M713.749,860.922a3.179,3.179,0,0,1-3.183,3.183H710.3l-6.367-6.367h6.632A3.186,3.186,0,0,1,713.749,860.922Z" transform="translate(1.686 12.767)" fill="#309672"/>
    <path id="Path_8400" data-name="Path 8400" d="M711.147,864.106h-17.88a3.183,3.183,0,0,1,0-6.367H704.78Z" transform="translate(0.839 12.767)" fill="#102600"/>
    <path id="Path_8401" data-name="Path 8401" d="M706.323,853.386a3.179,3.179,0,0,1-3.184,3.183h-.371L696.4,850.2h6.738A3.179,3.179,0,0,1,706.323,853.386Z" transform="translate(1.225 12.306)" fill="#309672"/>
    <path id="Path_8402" data-name="Path 8402" d="M703.632,856.569H685.464a3.183,3.183,0,0,1,0-6.367h11.8Z" transform="translate(0.362 12.306)" fill="#102600"/>
    <path id="Path_8403" data-name="Path 8403" d="M698.658,845.843a3.179,3.179,0,0,1-3.183,3.183h-.244l-6.367-6.367h6.611A3.179,3.179,0,0,1,698.658,845.843Z" transform="translate(0.764 11.845)" fill="#309672"/>
    <path id="Path_8404" data-name="Path 8404" d="M695.994,849.026H679.546a3.184,3.184,0,0,1,0-6.367h10.081Z" transform="translate(0 11.845)" fill="#102600"/>
    <path id="Path_8405" data-name="Path 8405" d="M686.579,716.409V725.4a3.171,3.171,0,0,1-4.372-.117,3.183,3.183,0,0,1,0-4.5Z" transform="translate(0.3 4.124)" fill="#fff"/>
    <path id="Path_8406" data-name="Path 8406" d="M727.779,882.254v8.968a2.87,2.87,0,0,1-.329-.288l-15.705-15.705h.265a3.183,3.183,0,1,0,0-6.367h-6.632l-1.624-1.634h.371a3.183,3.183,0,1,0,0-6.367h-6.738l-1.634-1.634H696a3.184,3.184,0,0,0,0-6.367h-6.611l-8.182-8.181a3.135,3.135,0,0,1-.934-2.25v-145.3a3.183,3.183,0,0,1,6.367,0v21.764l10.76-10.77V679.105a2.156,2.156,0,0,1,.042-.456,3.167,3.167,0,0,1,3.141-2.727,3.116,3.116,0,0,1,1.475.362,3.161,3.161,0,0,1,1.666,2.377,2.037,2.037,0,0,1,.042.445v30.34a3.209,3.209,0,0,1-.923,2.25L686.765,727.76a1.287,1.287,0,0,1-.127.118v18.93l-4.372,4.372a3.177,3.177,0,0,0,0,4.5,3.183,3.183,0,0,0,2.25.934,3.135,3.135,0,0,0,2.122-.827v15.683l-4.361,4.362a3.178,3.178,0,0,0,2.25,5.433,3.133,3.133,0,0,0,2.112-.806v16.224l-4.276,4.278a3.182,3.182,0,0,0,0,4.5,3.173,3.173,0,0,0,4.276.2v35.452Z" transform="translate(0.239 1.647)" fill="#0d5900"/>
    <path id="Path_8407" data-name="Path 8407" d="M686.577,742.722V751.7a3.135,3.135,0,0,1-2.122.827,3.183,3.183,0,0,1-2.25-.934,3.177,3.177,0,0,1,0-4.5Z" transform="translate(0.3 5.733)" fill="#309672"/>
    <path id="Path_8408" data-name="Path 8408" d="M722.528,682.656v8.522h-6.367v-8.522a3.183,3.183,0,0,1,6.367,0Z" transform="translate(2.434 1.864)" fill="#102600"/>
    <path id="Path_8409" data-name="Path 8409" d="M722.528,706.823v7.683a3.183,3.183,0,0,1-6.367,0V713.19Z" transform="translate(2.434 3.537)" fill="#fff"/>
    <path id="Path_8410" data-name="Path 8410" d="M731.72,709.1l-14.135,14.135h9.943a3.183,3.183,0,0,1,0,6.367h-16.31l-23.887,23.886-.934.934a1.137,1.137,0,0,1-.127.107v-8.978l1.061-1.061,20.109-20.1a.77.77,0,0,1,.159-.169,2.849,2.849,0,0,1,.265-.265l10.124-10.134V696.5h6.367v10.951l2.865-2.865a3.185,3.185,0,0,1,4.5,4.51Z" transform="translate(0.606 2.906)" fill="#102600"/>
    <rect id="Rectangle_222" data-name="Rectangle 222" width="6.367" height="6.367" transform="translate(718.595 693.042)" fill="#53c730"/>
    <path id="Path_8411" data-name="Path 8411" d="M716.766,690.5v6.367h-7.311a3.183,3.183,0,0,1,0-6.367Z" transform="translate(1.829 2.539)" fill="#102600"/>
    <path id="Path_8412" data-name="Path 8412" d="M732.751,693.687a3.18,3.18,0,0,1-3.183,3.183h-7.407V690.5h7.407A3.178,3.178,0,0,1,732.751,693.687Z" transform="translate(2.801 2.539)" fill="#102600"/>
    <path id="Path_8413" data-name="Path 8413" d="M686.576,765.962v8.989a3.133,3.133,0,0,1-2.112.807,3.178,3.178,0,0,1-2.25-5.433Z" transform="translate(0.3 7.154)" fill="#309672"/>
    <path id="Path_8414" data-name="Path 8414" d="M711.8,750.652l-25.393,25.395a.821.821,0,0,1-.138.117v-8.989L707.3,746.142A9.562,9.562,0,0,0,711.8,750.652Z" transform="translate(0.606 5.942)" fill="#102600"/>
    <path id="Path_8415" data-name="Path 8415" d="M686.573,789.719V798.7A3.181,3.181,0,0,1,682.3,794Z" transform="translate(0.306 8.607)" fill="#fff"/>
    <path id="Path_8416" data-name="Path 8416" d="M686.571,789.722V798.7a3.181,3.181,0,0,1-4.276-4.7Z" transform="translate(0.306 8.607)" fill="#309672"/>
    <path id="Path_8417" data-name="Path 8417" d="M709.245,776.865l-22.751,22.751a1.916,1.916,0,0,1-.223.2v-8.978l19.409-19.408a3.181,3.181,0,0,0,2.25,5.432Z" transform="translate(0.606 7.489)" fill="#102600"/>
    <path id="Path_8418" data-name="Path 8418" d="M731.525,754.813l-17.032,17.032H706.8a3.172,3.172,0,0,0-2.027.722l22.242-22.253a3.185,3.185,0,0,1,4.51,4.5Z" transform="translate(1.737 6.14)" fill="#102600"/>
    <path id="Path_8419" data-name="Path 8419" d="M714.56,770.549l-6.378,6.367h-1.316a3.181,3.181,0,0,1-2.25-5.433c.074-.074.149-.138.223-.212a3.172,3.172,0,0,1,2.027-.722Z" transform="translate(1.671 7.435)" fill="#309672"/>
    <path id="Path_8420" data-name="Path 8420" d="M730.42,773.732a3.179,3.179,0,0,1-3.183,3.183H707.923l6.378-6.367h12.936A3.179,3.179,0,0,1,730.42,773.732Z" transform="translate(1.93 7.435)" fill="#102600"/>
    <g id="Group_5976" data-name="Group 5976" transform="translate(679.261 648.984)">
      <path id="Path_8421" data-name="Path 8421" d="M682.165,670.914l18.495,18.659-.906.913a1.273,1.273,0,0,0,0,1.793l-20.289-20.471a1.273,1.273,0,0,1,0-1.8l4.115-4.115a1.274,1.274,0,0,1,.9-.373h5.149l-1.861-1.86a1.272,1.272,0,0,1-.375-.9V654.8a1.264,1.264,0,0,1,.375-.9l4.245-4.246a1.277,1.277,0,0,1,1.8,0l2.815,2.815,3.126-3.125a1.273,1.273,0,0,0,0,1.8l.9.9-3.125,3.125a1.275,1.275,0,0,1-1.8,0l-2.815-2.814-2.973,2.97v6.907l3.666,3.663a1.274,1.274,0,0,1-.9,2.175h-7.7Z" transform="translate(-679.094 -648.967)" fill="#e01933"/>
      <path id="Path_8422" data-name="Path 8422" d="M700.391,651.161l-.9.9-.9-.9a1.274,1.274,0,1,1,1.8,0Z" transform="translate(-677.924 -648.985)" fill="#f15d60"/>
      <path id="Path_8423" data-name="Path 8423" d="M700.4,689.957a1.181,1.181,0,0,1-.2.164.727.727,0,0,1-.109.065,1.28,1.28,0,0,1-.231.1c-.031.01-.06.016-.092.023a.337.337,0,0,1-.047.008,1.14,1.14,0,0,1-.225.021,1.3,1.3,0,0,1-.213-.018,1.218,1.218,0,0,1-.382-.13.728.728,0,0,1-.109-.065,1.18,1.18,0,0,1-.192-.155l-.01-.01a1.273,1.273,0,0,1,0-1.793l.906-.913.906.913A1.275,1.275,0,0,1,700.4,689.957Z" transform="translate(-677.924 -646.644)" fill="#f15d60"/>
      <path id="Path_8424" data-name="Path 8424" d="M720.614,671.809l-20.29,20.471a1.275,1.275,0,0,0,0-1.793l-.906-.913,18.495-18.659-2.843-2.843h-7.7a1.275,1.275,0,0,1-.9-2.175l3.666-3.663v-6.907l-2.973-2.97-2.815,2.814a1.272,1.272,0,0,1-1.8,0l-3.126-3.125.9-.9a1.273,1.273,0,0,0,0-1.8l3.126,3.125,2.815-2.815a1.277,1.277,0,0,1,1.8,0l4.245,4.246a1.264,1.264,0,0,1,.375.9v7.964a1.271,1.271,0,0,1-.375.9l-1.861,1.86h5.149a1.277,1.277,0,0,1,.9.373l4.114,4.115A1.274,1.274,0,0,1,720.614,671.809Z" transform="translate(-677.851 -648.967)" fill="#97174b"/>
      <path id="Path_8425" data-name="Path 8425" d="M700.483,651.885v37.529l-18.495-18.659,2.844-2.843h7.7a1.274,1.274,0,0,0,.9-2.175l-3.666-3.663v-6.907l2.973-2.97,2.815,2.814a1.275,1.275,0,0,0,1.8,0Z" transform="translate(-678.917 -648.807)" fill="#f15e35"/>
      <path id="Path_8426" data-name="Path 8426" d="M717.912,670.755l-18.495,18.659V651.885l3.126,3.125a1.272,1.272,0,0,0,1.8,0l2.815-2.814,2.973,2.97v6.907l-3.666,3.663a1.275,1.275,0,0,0,.9,2.175h7.7Z" transform="translate(-677.851 -648.807)" fill="#e01933"/>
    </g>
    <g id="Group_5977" data-name="Group 5977" transform="translate(695.009 671.325)">
      <path id="Path_8427" data-name="Path 8427" d="M704.895,676.672l-4.657,4.66a1.153,1.153,0,0,1-.82.339v-3.552l2.263-2.265-2.263-2.266v-3.552a1.166,1.166,0,0,1,.82.337l4.657,4.66A1.155,1.155,0,0,1,704.895,676.672Z" transform="translate(-693.599 -670.037)" fill="#f15d60"/>
      <path id="Path_8428" data-name="Path 8428" d="M699.752,673.589l-2.263,2.266,2.263,2.265v3.552a1.147,1.147,0,0,1-.818-.339l-4.66-4.66a1.156,1.156,0,0,1,0-1.638l4.66-4.66a1.159,1.159,0,0,1,.818-.337Z" transform="translate(-693.934 -670.037)" fill="#97174b"/>
      <rect id="Rectangle_223" data-name="Rectangle 223" width="3.202" height="3.202" transform="translate(3.554 5.817) rotate(-45.001)" fill="#f15e35"/>
      <rect id="Rectangle_224" data-name="Rectangle 224" width="3.202" height="3.202" transform="translate(3.554 5.817) rotate(-45.001)" fill="#f47942"/>
    </g>
    <g id="Group_5980" data-name="Group 5980" transform="translate(683.269 1214.387)">
      <g id="Group_5978" data-name="Group 5978" transform="translate(0 0)">
        <path id="Path_8429" data-name="Path 8429" d="M685.942,1203.73l18.495,18.659-.906.913a1.273,1.273,0,0,0,0,1.793l-20.29-20.471a1.275,1.275,0,0,1,0-1.8l4.115-4.115a1.275,1.275,0,0,1,.9-.373h5.148l-1.86-1.861a1.271,1.271,0,0,1-.376-.9v-7.964a1.266,1.266,0,0,1,.376-.9l4.245-4.245a1.274,1.274,0,0,1,1.8,0l2.815,2.815,3.125-3.126a1.275,1.275,0,0,0,0,1.8l.9.9-3.126,3.126a1.277,1.277,0,0,1-1.8,0l-2.815-2.815-2.972,2.97v6.907l3.665,3.663a1.274,1.274,0,0,1-.9,2.175h-7.7Z" transform="translate(-682.87 -1181.783)" fill="#e01933"/>
        <path id="Path_8430" data-name="Path 8430" d="M704.168,1183.978l-.9.9-.9-.9a1.275,1.275,0,1,1,1.8,0Z" transform="translate(-681.701 -1181.801)" fill="#f15d60"/>
        <path id="Path_8431" data-name="Path 8431" d="M704.173,1222.773a1.175,1.175,0,0,1-.2.164.746.746,0,0,1-.108.066,1.253,1.253,0,0,1-.232.094c-.03.01-.059.016-.092.023a.412.412,0,0,1-.047.01,1.2,1.2,0,0,1-.224.02,1.294,1.294,0,0,1-.213-.018,1.219,1.219,0,0,1-.383-.13.8.8,0,0,1-.108-.066,1.132,1.132,0,0,1-.192-.155l-.01-.01a1.273,1.273,0,0,1,0-1.793l.906-.913.905.913A1.275,1.275,0,0,1,704.173,1222.773Z" transform="translate(-681.701 -1179.461)" fill="#f15d60"/>
        <path id="Path_8432" data-name="Path 8432" d="M724.39,1204.625,704.1,1225.1a1.275,1.275,0,0,0,0-1.793l-.905-.913,18.494-18.659-2.843-2.843h-7.7a1.274,1.274,0,0,1-.9-2.175l3.665-3.663v-6.907l-2.972-2.97-2.815,2.815a1.275,1.275,0,0,1-1.8,0l-3.125-3.126.9-.9a1.275,1.275,0,0,0,0-1.8l3.126,3.126,2.814-2.815a1.274,1.274,0,0,1,1.8,0l4.245,4.245a1.267,1.267,0,0,1,.376.9v7.964a1.271,1.271,0,0,1-.376.9l-1.86,1.861h5.149a1.273,1.273,0,0,1,.9.373l4.115,4.115A1.275,1.275,0,0,1,724.39,1204.625Z" transform="translate(-681.628 -1181.783)" fill="#97174b"/>
        <path id="Path_8433" data-name="Path 8433" d="M704.26,1184.7v37.529l-18.495-18.659,2.843-2.843h7.7a1.274,1.274,0,0,0,.9-2.175l-3.665-3.663v-6.907l2.972-2.97,2.815,2.815a1.277,1.277,0,0,0,1.8,0Z" transform="translate(-682.694 -1181.624)" fill="#f15e35"/>
        <path id="Path_8434" data-name="Path 8434" d="M721.688,1203.571l-18.494,18.659V1184.7l3.125,3.126a1.275,1.275,0,0,0,1.8,0l2.815-2.815,2.972,2.97v6.907l-3.665,3.663a1.274,1.274,0,0,0,.9,2.175h7.7Z" transform="translate(-681.628 -1181.624)" fill="#e01933"/>
      </g>
      <g id="Group_5979" data-name="Group 5979" transform="translate(15.748 22.339)">
        <path id="Path_8435" data-name="Path 8435" d="M708.671,1209.489l-4.656,4.659a1.154,1.154,0,0,1-.82.339v-3.552l2.264-2.265-2.264-2.265v-3.552a1.164,1.164,0,0,1,.82.339l4.656,4.659A1.154,1.154,0,0,1,708.671,1209.489Z" transform="translate(-697.376 -1202.853)" fill="#f15d60"/>
        <path id="Path_8436" data-name="Path 8436" d="M703.529,1206.4l-2.264,2.265,2.264,2.265v3.552a1.144,1.144,0,0,1-.818-.339l-4.66-4.659a1.154,1.154,0,0,1,0-1.637l4.66-4.659a1.153,1.153,0,0,1,.818-.339Z" transform="translate(-697.711 -1202.853)" fill="#97174b"/>
        <rect id="Rectangle_225" data-name="Rectangle 225" width="3.202" height="3.202" transform="translate(3.554 5.817) rotate(-45.001)" fill="#f15e35"/>
        <rect id="Rectangle_226" data-name="Rectangle 226" width="3.202" height="3.202" transform="translate(3.554 5.817) rotate(-45.001)" fill="#f47942"/>
      </g>
    </g>
    <path id="Path_8437" data-name="Path 8437" d="M713.912,747.576l-3.321,3.32a9.562,9.562,0,0,1-4.5-4.51l3.311-3.311a3.186,3.186,0,0,1,4.51,4.5Z" transform="translate(1.818 5.697)" fill="#f15e35"/>
    <path id="Path_8438" data-name="Path 8438" d="M724.226,742.849a9.515,9.515,0,0,1-13.583,8.585l3.321-3.32a3.186,3.186,0,0,0-4.51-4.5l-3.311,3.311a9.5,9.5,0,1,1,18.082-4.075Z" transform="translate(1.766 5.16)" fill="#97174b"/>
    <g id="Group_5981" data-name="Group 5981" transform="translate(697.225 805.33)">
      <path id="Path_8439" data-name="Path 8439" d="M721.353,796.319H698.729a2.631,2.631,0,0,0-2.706,2.536V815.3a13.374,13.374,0,0,0,10.834,12.808v-1.019a3.184,3.184,0,1,1,6.367,0V828.1a13.364,13.364,0,0,0,10.834-12.8V798.855A2.624,2.624,0,0,0,721.353,796.319Zm-2.4,18.984a8.937,8.937,0,0,1-17.838,0V801.1h17.838Z" transform="translate(-696.023 -796.319)" fill="#a42296"/>
      <path id="Path_8440" data-name="Path 8440" d="M712.6,825.5v1.008c-.233.053-.467.1-.711.138a14.483,14.483,0,0,1-2.472.212h-.064a15.491,15.491,0,0,1-2.557-.233c-.191-.032-.371-.074-.562-.106V825.5a3.184,3.184,0,1,1,6.367,0Z" transform="translate(-695.399 -794.729)" fill="#d8687d"/>
      <path id="Path_8441" data-name="Path 8441" d="M718.664,800.83v14.2a8.938,8.938,0,0,1-17.84,0v-14.2Z" transform="translate(-695.729 -796.043)" fill="#e01a33"/>
    </g>
    <path id="Path_8442" data-name="Path 8442" d="M715.017,959.963" transform="translate(2.364 19.019)" fill="#c9c9c9" stroke="#fff" stroke-linecap="round" stroke-linejoin="round" stroke-width="5"/>
    <g id="Group_5982" data-name="Group 5982" transform="translate(695.252 961.617)">
      <path id="Path_8443" data-name="Path 8443" d="M715.6,958.759" transform="translate(-692.852 -942.672)" fill="#ba369f"/>
      <path id="Path_8444" data-name="Path 8444" d="M722.654,961.35l-2.271,2.271-2.261-2.271,2.261-2.26Z" transform="translate(-692.698 -942.652)" fill="#e87800"/>
      <path id="Path_8445" data-name="Path 8445" d="M729.739,961.706a1.744,1.744,0,0,0-.817-1.486l-1.942-1.252,1.942-1.252a1.769,1.769,0,0,0,0-2.982l-1.974-1.273a1.3,1.3,0,0,0-.711-.212H720.38a.647.647,0,0,0-.488.191l-5.316,5.316-1.9,1.9a1.313,1.313,0,0,0,0,1.868l1.9,1.9,5.55,5.56a.658.658,0,0,0,.467.191h5.645a1.3,1.3,0,0,0,.711-.212l1.974-1.273a1.769,1.769,0,0,0,0-2.982l-1.942-1.252,1.942-1.252A1.749,1.749,0,0,0,729.739,961.706Zm-9,2.271-2.26-2.271,2.26-2.26,2.271,2.26Z" transform="translate(-693.055 -943.009)" fill="#ba369f"/>
      <path id="Path_8446" data-name="Path 8446" d="M709.135,946.4" transform="translate(-693.247 -943.428)" fill="#ba369f"/>
      <path id="Path_8447" data-name="Path 8447" d="M720.007,946.39l-1.284-1.974a1.769,1.769,0,0,0-2.982,0l-1.252,1.942-1.252-1.942a1.769,1.769,0,0,0-2.982,0L709,946.358l-1.242-1.942a1.786,1.786,0,0,0-1.5-.817,1.742,1.742,0,0,0-1.486.817L703.5,946.39a1.334,1.334,0,0,0-.212.722v5.635a.707.707,0,0,0,.191.467l5.285,5.285,2.175,2.175a1.333,1.333,0,0,0,1.868,0l2.324-2.324,4.892-4.892a.632.632,0,0,0,.191-.5v-5.847A1.324,1.324,0,0,0,720.007,946.39Zm-8.256,8.468L710.69,953.8l-1.21-1.2,2.271-2.271,2.26,2.271Z" transform="translate(-693.605 -943.599)" fill="#ba369f"/>
      <path id="Path_8448" data-name="Path 8448" d="M713.654,952.21l-2.261,2.26-1.061-1.061-1.21-1.2,2.271-2.271Z" transform="translate(-693.248 -943.211)" fill="#e87800"/>
      <path id="Path_8449" data-name="Path 8449" d="M705.034,961.35l-2.271,2.271-2.26-2.271,2.26-2.26Z" transform="translate(-693.775 -942.652)" fill="#e87800"/>
      <path id="Path_8450" data-name="Path 8450" d="M711.226,960.889l-1.91-1.91-5.539-5.539a.665.665,0,0,0-.477-.191h-5.635a1.217,1.217,0,0,0-.711.212l-1.984,1.273a1.781,1.781,0,0,0,0,2.982l1.953,1.252-1.953,1.252a1.781,1.781,0,0,0,0,2.982l1.953,1.252-1.953,1.252a1.745,1.745,0,0,0-.806,1.486,1.762,1.762,0,0,0,.806,1.5l1.984,1.273a1.3,1.3,0,0,0,.711.212h5.858a.647.647,0,0,0,.488-.191l7.216-7.216A1.326,1.326,0,0,0,711.226,960.889Zm-8.075,3.088-2.26-2.271,2.26-2.26,2.271,2.26Z" transform="translate(-694.163 -943.009)" fill="#ba369f"/>
    </g>
    <g id="Group_5983" data-name="Group 5983" transform="translate(683.112 1030.72)">
      <path id="Path_8451" data-name="Path 8451" d="M698.81,1008.719H686.862a4.137,4.137,0,0,0-4.138,4.139v11.959a4.144,4.144,0,0,0,4.138,4.138h11.567l-1-1a3.181,3.181,0,0,1,4.5-4.5l1.029,1.029v-11.63A4.139,4.139,0,0,0,698.81,1008.719Zm-5.974,15.111a5,5,0,1,1,5-5A5,5,0,0,1,692.836,1023.83Z" transform="translate(-682.723 -1008.719)" fill="#5c9e98"/>
      <path id="Path_8452" data-name="Path 8452" d="M702.165,1023.692v.329a4.146,4.146,0,0,1-4.149,4.138h-.382l-1-1a3.181,3.181,0,1,1,4.5-4.5Z" transform="translate(-681.929 -1007.923)" fill="#3b635e"/>
      <path id="Path_8453" data-name="Path 8453" d="M697.539,1018.538a5,5,0,1,1-5-5A5,5,0,0,1,697.539,1018.538Z" transform="translate(-682.428 -1008.424)" fill="#b8000f"/>
    </g>
    <g id="Group_5984" data-name="Group 5984" transform="translate(723.086 1142.216)">
      <path id="Path_8454" data-name="Path 8454" d="M730.5,1113.789h-7.5a2.6,2.6,0,0,0-2.6,2.6v6.335l.021-.021a2.649,2.649,0,0,1,3.746,3.746l-.032.032H730.5a2.586,2.586,0,0,0,2.589-2.589v-7.5A2.6,2.6,0,0,0,730.5,1113.789Zm-3.757,9.476a3.13,3.13,0,1,1,3.141-3.13A3.129,3.129,0,0,1,726.739,1123.265Z" transform="translate(-720.393 -1113.789)" fill="#e5bde7"/>
      <path id="Path_8455" data-name="Path 8455" d="M724.16,1125.98l-.032.032h-1.135a2.6,2.6,0,0,1-2.6-2.589v-1.167l.021-.021a2.649,2.649,0,0,1,3.746,3.746Z" transform="translate(-720.393 -1113.32)" fill="#b8000f"/>
      <path id="Path_8456" data-name="Path 8456" d="M729.692,1119.951a3.134,3.134,0,1,1-3.135-3.134A3.134,3.134,0,0,1,729.692,1119.951Z" transform="translate(-720.208 -1113.604)" fill="#5c9e98"/>
    </g>
    <path id="Path_8457" data-name="Path 8457" d="M700.386,1044.442a6.687,6.687,0,0,1-4.574,4.436l-1.655-1.655a3.185,3.185,0,0,1,4.5-4.51Z" transform="translate(1.031 24.023)" fill="#6d2067"/>
    <path id="Path_8458" data-name="Path 8458" d="M701.034,1042.784a6.607,6.607,0,0,1-.308,2.005l-1.73-1.73a3.185,3.185,0,0,0-4.5,4.51l1.655,1.655a6.688,6.688,0,1,1,4.881-6.441Z" transform="translate(0.691 23.675)" fill="#b82da8"/>
    <path id="Path_8459" data-name="Path 8459" d="M721.975,1110.991a2.882,2.882,0,0,1-4.085,0l-6.823-6.813-.6-.6a2.908,2.908,0,0,1,0-4.1,2.692,2.692,0,0,1,.477-.382,2.911,2.911,0,0,1,3.619.382l.6.6,2.61,2.621,4.2,4.2A2.876,2.876,0,0,1,721.975,1110.991Z" transform="translate(2.034 27.5)" fill="#45a949"/>
    <path id="Path_8460" data-name="Path 8460" d="M716.148,1099.31l-1.008,1.008-.6-.6a2.911,2.911,0,0,0-3.619-.382,10.371,10.371,0,0,1-.934-1.369l2.409-2.409a2.656,2.656,0,0,1,3.757,3.756Z" transform="translate(2.056 27.264)" fill="#b8000f"/>
    <path id="Path_8461" data-name="Path 8461" d="M728.413,1093.825a9.809,9.809,0,0,1-9.805,9.805c-.265,0-.531-.011-.785-.032l-2.61-2.621,1.008-1.008a2.656,2.656,0,0,0-3.757-3.756l-2.409,2.409a9.808,9.808,0,1,1,18.358-4.8Z" transform="translate(1.984 26.605)" fill="#eb0311"/>
    <g id="Group_5985" data-name="Group 5985" transform="translate(690.69 886.645)">
      <path id="Path_8462" data-name="Path 8462" d="M712.528,880.645V884.8l-9.589,9.616-9.59-9.616v-4.152l3.856-3.856,3.772,3.772a2.773,2.773,0,0,0,3.921,0l3.772-3.772Z" transform="translate(-689.651 -872.713)" fill="#ec000a"/>
      <path id="Path_8463" data-name="Path 8463" d="M715.627,878.54l-4.781-4.781a2.773,2.773,0,0,0-3.921,0l-3.772,3.772-3.773-3.772a2.773,2.773,0,0,0-3.921,0l-4.781,4.781a2.771,2.771,0,0,0-.814,1.961v4.91a2.745,2.745,0,0,0,.814,1.96l10.514,10.543a2.744,2.744,0,0,0,1.961.822,2.8,2.8,0,0,0,1.969-.814l10.514-10.551a2.776,2.776,0,0,0,.8-1.96V880.5A2.732,2.732,0,0,0,715.627,878.54Zm-2.885,6.492-9.589,9.616-9.59-9.616V880.88l3.856-3.856,3.772,3.772a2.773,2.773,0,0,0,3.921,0l3.772-3.772,3.856,3.856Z" transform="translate(-689.864 -872.948)" fill="#55928e"/>
    </g>
  </g>
</svg>
